<svg width="28" height="28" viewBox="0 0 28 28" fill="none" xmlns="http://www.w3.org/2000/svg">
<path d="M7.29372 7.29372C7.38659 7.20062 7.49692 7.12675 7.61839 7.07635C7.73985 7.02594 7.87006 7 8.00157 7C8.13307 7 8.26329 7.02594 8.38475 7.07635C8.50622 7.12675 8.61654 7.20062 8.70941 7.29372L14.0003 12.5866L19.2911 7.29372C19.3841 7.20077 19.4944 7.12703 19.6159 7.07672C19.7373 7.02642 19.8675 7.00052 19.999 7.00052C20.1304 7.00052 20.2606 7.02642 20.382 7.07672C20.5035 7.12703 20.6138 7.20077 20.7068 7.29372C20.7998 7.38668 20.8735 7.49703 20.9238 7.61849C20.9741 7.73994 21 7.87011 21 8.00157C21 8.13303 20.9741 8.2632 20.9238 8.38465C20.8735 8.50611 20.7998 8.61646 20.7068 8.70941L15.414 14.0003L20.7068 19.2911C20.7998 19.3841 20.8735 19.4944 20.9238 19.6159C20.9741 19.7373 21 19.8675 21 19.999C21 20.1304 20.9741 20.2606 20.9238 20.382C20.8735 20.5035 20.7998 20.6138 20.7068 20.7068C20.6138 20.7998 20.5035 20.8735 20.382 20.9238C20.2606 20.9741 20.1304 21 19.999 21C19.8675 21 19.7373 20.9741 19.6159 20.9238C19.4944 20.8735 19.3841 20.7998 19.2911 20.7068L14.0003 15.414L8.70941 20.7068C8.61646 20.7998 8.50611 20.8735 8.38465 20.9238C8.2632 20.9741 8.13303 21 8.00157 21C7.87011 21 7.73994 20.9741 7.61849 20.9238C7.49703 20.8735 7.38668 20.7998 7.29372 20.7068C7.20077 20.6138 7.12703 20.5035 7.07672 20.382C7.02642 20.2606 7.00052 20.1304 7.00052 19.999C7.00052 19.8675 7.02642 19.7373 7.07672 19.6159C7.12703 19.4944 7.20077 19.3841 7.29372 19.2911L12.5866 14.0003L7.29372 8.70941C7.20062 8.61654 7.12675 8.50622 7.07635 8.38475C7.02594 8.26329 7 8.13307 7 8.00157C7 7.87006 7.02594 7.73985 7.07635 7.61839C7.12675 7.49692 7.20062 7.38659 7.29372 7.29372Z" fill="#005AAA"/>
</svg>
