<svg width="323" height="55" viewBox="0 0 323 55" fill="none" xmlns="http://www.w3.org/2000/svg">
<path d="M152.547 17.5273V18.2988H149.119V24.6367H148.182V17.5273H152.547ZM152.41 22.0537V21.9414C152.41 21.5605 152.465 21.2074 152.576 20.8818C152.687 20.5531 152.846 20.2682 153.055 20.0273C153.263 19.7832 153.515 19.5944 153.812 19.4609C154.108 19.3242 154.44 19.2559 154.808 19.2559C155.179 19.2559 155.512 19.3242 155.809 19.4609C156.108 19.5944 156.362 19.7832 156.57 20.0273C156.782 20.2682 156.943 20.5531 157.054 20.8818C157.164 21.2074 157.22 21.5605 157.22 21.9414V22.0537C157.22 22.4346 157.164 22.7878 157.054 23.1133C156.943 23.4388 156.782 23.7236 156.57 23.9678C156.362 24.2087 156.11 24.3975 155.813 24.5342C155.521 24.6676 155.188 24.7344 154.817 24.7344C154.446 24.7344 154.113 24.6676 153.816 24.5342C153.52 24.3975 153.266 24.2087 153.055 23.9678C152.846 23.7236 152.687 23.4388 152.576 23.1133C152.465 22.7878 152.41 22.4346 152.41 22.0537ZM153.313 21.9414V22.0537C153.313 22.3174 153.344 22.5664 153.406 22.8008C153.468 23.0319 153.561 23.237 153.685 23.416C153.812 23.5951 153.969 23.7367 154.158 23.8408C154.347 23.9417 154.567 23.9922 154.817 23.9922C155.065 23.9922 155.281 23.9417 155.467 23.8408C155.656 23.7367 155.812 23.5951 155.936 23.416C156.059 23.237 156.152 23.0319 156.214 22.8008C156.279 22.5664 156.312 22.3174 156.312 22.0537V21.9414C156.312 21.681 156.279 21.4352 156.214 21.2041C156.152 20.9697 156.058 20.763 155.931 20.584C155.807 20.4017 155.651 20.2585 155.462 20.1543C155.276 20.0501 155.058 19.998 154.808 19.998C154.56 19.998 154.342 20.0501 154.153 20.1543C153.968 20.2585 153.812 20.4017 153.685 20.584C153.561 20.763 153.468 20.9697 153.406 21.2041C153.344 21.4352 153.313 21.681 153.313 21.9414ZM160.467 23.9922C160.682 23.9922 160.88 23.9482 161.062 23.8604C161.245 23.7725 161.395 23.652 161.512 23.499C161.629 23.3428 161.696 23.1654 161.712 22.9668H162.571C162.555 23.2793 162.449 23.5706 162.254 23.8408C162.062 24.1077 161.81 24.3242 161.497 24.4902C161.185 24.653 160.841 24.7344 160.467 24.7344C160.07 24.7344 159.723 24.6644 159.427 24.5244C159.134 24.3844 158.89 24.1924 158.694 23.9482C158.502 23.7041 158.357 23.4242 158.26 23.1084C158.165 22.7894 158.118 22.4525 158.118 22.0977V21.8926C158.118 21.5378 158.165 21.2025 158.26 20.8867C158.357 20.5677 158.502 20.2861 158.694 20.042C158.89 19.7979 159.134 19.6058 159.427 19.4658C159.723 19.3258 160.07 19.2559 160.467 19.2559C160.88 19.2559 161.242 19.3405 161.551 19.5098C161.86 19.6758 162.103 19.9036 162.278 20.1934C162.457 20.4798 162.555 20.8053 162.571 21.1699H161.712C161.696 20.9518 161.634 20.7549 161.526 20.5791C161.422 20.4033 161.279 20.2633 161.097 20.1592C160.918 20.0518 160.708 19.998 160.467 19.998C160.19 19.998 159.957 20.0534 159.769 20.1641C159.583 20.2715 159.435 20.418 159.324 20.6035C159.217 20.7858 159.139 20.9893 159.09 21.2139C159.044 21.4352 159.021 21.6615 159.021 21.8926V22.0977C159.021 22.3288 159.044 22.5566 159.09 22.7812C159.135 23.0059 159.212 23.2093 159.319 23.3916C159.43 23.5739 159.578 23.7204 159.764 23.8311C159.952 23.9385 160.187 23.9922 160.467 23.9922ZM165.071 24.0898L166.541 19.3535H167.508L165.389 25.4521C165.34 25.5824 165.275 25.7223 165.193 25.8721C165.115 26.0251 165.014 26.1699 164.891 26.3066C164.767 26.4434 164.617 26.554 164.441 26.6387C164.269 26.7266 164.062 26.7705 163.821 26.7705C163.75 26.7705 163.659 26.7607 163.548 26.7412C163.437 26.7217 163.359 26.7054 163.313 26.6924L163.309 25.96C163.335 25.9632 163.375 25.9665 163.431 25.9697C163.489 25.9762 163.53 25.9795 163.553 25.9795C163.758 25.9795 163.932 25.9518 164.075 25.8965C164.218 25.8444 164.339 25.7549 164.437 25.6279C164.537 25.5042 164.624 25.3333 164.695 25.1152L165.071 24.0898ZM163.992 19.3535L165.364 23.4551L165.599 24.4072L164.949 24.7393L163.006 19.3535H163.992ZM169.002 19.3535H169.905L169.827 21.3311C169.808 21.8324 169.751 22.2653 169.656 22.6299C169.562 22.9945 169.441 23.3053 169.295 23.5625C169.148 23.8164 168.984 24.0296 168.802 24.2021C168.623 24.3747 168.437 24.5195 168.245 24.6367H167.796L167.82 23.8994L168.006 23.8945C168.113 23.7676 168.217 23.6374 168.318 23.5039C168.419 23.3672 168.512 23.2061 168.597 23.0205C168.681 22.8317 168.751 22.6022 168.807 22.332C168.865 22.0586 168.903 21.7249 168.919 21.3311L169.002 19.3535ZM169.227 19.3535H172.405V24.6367H171.502V20.1885H169.227V19.3535ZM167.591 23.8945H173.084V26.1943H172.181V24.6367H168.494V26.1943H167.586L167.591 23.8945ZM177.2 23.7334V21.0137C177.2 20.8053 177.158 20.6247 177.073 20.4717C176.992 20.3154 176.868 20.195 176.702 20.1104C176.536 20.0257 176.331 19.9834 176.087 19.9834C175.859 19.9834 175.659 20.0225 175.486 20.1006C175.317 20.1787 175.184 20.2812 175.086 20.4082C174.992 20.5352 174.944 20.6719 174.944 20.8184H174.041C174.041 20.6296 174.09 20.4424 174.188 20.2568C174.285 20.0713 174.425 19.9036 174.607 19.7539C174.793 19.6009 175.014 19.4805 175.271 19.3926C175.532 19.3014 175.822 19.2559 176.141 19.2559C176.525 19.2559 176.863 19.321 177.156 19.4512C177.452 19.5814 177.684 19.7783 177.85 20.042C178.019 20.3024 178.104 20.6296 178.104 21.0234V23.4844C178.104 23.6602 178.118 23.8473 178.147 24.0459C178.18 24.2445 178.227 24.4154 178.289 24.5586V24.6367H177.347C177.301 24.5326 177.265 24.3942 177.239 24.2217C177.213 24.0459 177.2 23.8831 177.2 23.7334ZM177.356 21.4336L177.366 22.0684H176.453C176.196 22.0684 175.966 22.0895 175.765 22.1318C175.563 22.1709 175.394 22.2311 175.257 22.3125C175.12 22.3939 175.016 22.4964 174.944 22.6201C174.873 22.7406 174.837 22.8822 174.837 23.0449C174.837 23.2109 174.874 23.3623 174.949 23.499C175.024 23.6357 175.136 23.7448 175.286 23.8262C175.439 23.9043 175.626 23.9434 175.848 23.9434C176.124 23.9434 176.368 23.8848 176.58 23.7676C176.792 23.6504 176.959 23.5072 177.083 23.3379C177.21 23.1686 177.278 23.0042 177.288 22.8447L177.674 23.2793C177.651 23.416 177.589 23.5674 177.488 23.7334C177.387 23.8994 177.252 24.0589 177.083 24.2119C176.917 24.3617 176.718 24.487 176.487 24.5879C176.259 24.6855 176.002 24.7344 175.716 24.7344C175.358 24.7344 175.044 24.6644 174.773 24.5244C174.507 24.3844 174.298 24.1973 174.148 23.9629C174.002 23.7253 173.929 23.46 173.929 23.167C173.929 22.8838 173.984 22.6348 174.095 22.4199C174.205 22.2018 174.365 22.0212 174.573 21.8779C174.782 21.7314 175.032 21.6208 175.325 21.5459C175.618 21.471 175.945 21.4336 176.307 21.4336H177.356ZM180.428 20.3691V26.668H179.52V19.3535H180.35L180.428 20.3691ZM183.987 21.9512V22.0537C183.987 22.4378 183.942 22.7943 183.851 23.123C183.759 23.4486 183.626 23.7318 183.45 23.9727C183.278 24.2135 183.064 24.4007 182.811 24.5342C182.557 24.6676 182.265 24.7344 181.937 24.7344C181.601 24.7344 181.305 24.679 181.048 24.5684C180.791 24.4577 180.573 24.2965 180.394 24.085C180.215 23.8734 180.071 23.6195 179.964 23.3232C179.86 23.027 179.788 22.6934 179.749 22.3223V21.7754C179.788 21.3848 179.861 21.0348 179.969 20.7256C180.076 20.4163 180.218 20.1527 180.394 19.9346C180.573 19.7132 180.789 19.5456 181.043 19.4316C181.297 19.3145 181.59 19.2559 181.922 19.2559C182.254 19.2559 182.549 19.321 182.806 19.4512C183.063 19.5781 183.279 19.7604 183.455 19.998C183.631 20.2357 183.763 20.5205 183.851 20.8525C183.942 21.1813 183.987 21.5475 183.987 21.9512ZM183.079 22.0537V21.9512C183.079 21.6875 183.051 21.4401 182.996 21.209C182.941 20.9746 182.854 20.7695 182.737 20.5938C182.623 20.4147 182.477 20.2747 182.298 20.1738C182.119 20.0697 181.906 20.0176 181.658 20.0176C181.43 20.0176 181.232 20.0566 181.062 20.1348C180.896 20.2129 180.755 20.3187 180.638 20.4521C180.521 20.5824 180.424 20.7321 180.35 20.9014C180.278 21.0674 180.224 21.2399 180.188 21.4189V22.6836C180.254 22.9115 180.345 23.1263 180.462 23.3281C180.579 23.5267 180.735 23.6878 180.931 23.8115C181.126 23.932 181.372 23.9922 181.668 23.9922C181.912 23.9922 182.122 23.9417 182.298 23.8408C182.477 23.7367 182.623 23.5951 182.737 23.416C182.854 23.237 182.941 23.0319 182.996 22.8008C183.051 22.5664 183.079 22.3174 183.079 22.0537ZM187.254 23.9922C187.469 23.9922 187.667 23.9482 187.85 23.8604C188.032 23.7725 188.182 23.652 188.299 23.499C188.416 23.3428 188.483 23.1654 188.499 22.9668H189.358C189.342 23.2793 189.236 23.5706 189.041 23.8408C188.849 24.1077 188.597 24.3242 188.284 24.4902C187.972 24.653 187.628 24.7344 187.254 24.7344C186.857 24.7344 186.51 24.6644 186.214 24.5244C185.921 24.3844 185.677 24.1924 185.481 23.9482C185.289 23.7041 185.145 23.4242 185.047 23.1084C184.952 22.7894 184.905 22.4525 184.905 22.0977V21.8926C184.905 21.5378 184.952 21.2025 185.047 20.8867C185.145 20.5677 185.289 20.2861 185.481 20.042C185.677 19.7979 185.921 19.6058 186.214 19.4658C186.51 19.3258 186.857 19.2559 187.254 19.2559C187.667 19.2559 188.029 19.3405 188.338 19.5098C188.647 19.6758 188.89 19.9036 189.065 20.1934C189.244 20.4798 189.342 20.8053 189.358 21.1699H188.499C188.483 20.9518 188.421 20.7549 188.313 20.5791C188.209 20.4033 188.066 20.2633 187.884 20.1592C187.705 20.0518 187.495 19.998 187.254 19.998C186.977 19.998 186.744 20.0534 186.556 20.1641C186.37 20.2715 186.222 20.418 186.111 20.6035C186.004 20.7858 185.926 20.9893 185.877 21.2139C185.831 21.4352 185.809 21.6615 185.809 21.8926V22.0977C185.809 22.3288 185.831 22.5566 185.877 22.7812C185.923 23.0059 185.999 23.2093 186.106 23.3916C186.217 23.5739 186.365 23.7204 186.551 23.8311C186.74 23.9385 186.974 23.9922 187.254 23.9922ZM192.527 19.3535V24.6367H191.619V19.3535H192.527ZM194.3 19.3535V20.0859H189.881V19.3535H194.3ZM197.669 22.3125H195.936L195.926 21.5898H197.342C197.622 21.5898 197.854 21.5622 198.04 21.5068C198.229 21.4515 198.37 21.3685 198.465 21.2578C198.559 21.1471 198.606 21.0104 198.606 20.8477C198.606 20.7207 198.579 20.61 198.523 20.5156C198.471 20.418 198.392 20.3382 198.284 20.2764C198.177 20.2113 198.043 20.1641 197.884 20.1348C197.728 20.1022 197.544 20.0859 197.332 20.0859H196.175V24.6367H195.271V19.3535H197.332C197.667 19.3535 197.968 19.3828 198.235 19.4414C198.506 19.5 198.735 19.5895 198.924 19.71C199.116 19.8271 199.262 19.9769 199.363 20.1592C199.464 20.3415 199.515 20.5563 199.515 20.8037C199.515 20.9632 199.482 21.1146 199.417 21.2578C199.352 21.401 199.256 21.528 199.129 21.6387C199.002 21.7493 198.846 21.8405 198.66 21.9121C198.475 21.9805 198.261 22.0244 198.021 22.0439L197.669 22.3125ZM197.669 24.6367H195.608L196.058 23.9043H197.669C197.92 23.9043 198.128 23.8734 198.294 23.8115C198.46 23.7464 198.584 23.6553 198.665 23.5381C198.75 23.4176 198.792 23.2744 198.792 23.1084C198.792 22.9424 198.75 22.8008 198.665 22.6836C198.584 22.5632 198.46 22.472 198.294 22.4102C198.128 22.3451 197.92 22.3125 197.669 22.3125H196.297L196.307 21.5898H198.021L198.348 21.8633C198.637 21.8861 198.883 21.9577 199.085 22.0781C199.287 22.1986 199.44 22.3516 199.544 22.5371C199.648 22.7194 199.7 22.918 199.7 23.1328C199.7 23.3802 199.653 23.5983 199.559 23.7871C199.467 23.9759 199.334 24.1338 199.158 24.2607C198.982 24.3844 198.769 24.4788 198.519 24.5439C198.268 24.6058 197.985 24.6367 197.669 24.6367ZM203.104 24.7344C202.736 24.7344 202.402 24.6725 202.103 24.5488C201.806 24.4219 201.551 24.2445 201.336 24.0166C201.124 23.7887 200.962 23.5186 200.848 23.2061C200.734 22.8936 200.677 22.5518 200.677 22.1807V21.9756C200.677 21.5459 200.74 21.1634 200.867 20.8281C200.994 20.4896 201.167 20.2031 201.385 19.9688C201.603 19.7344 201.85 19.557 202.127 19.4365C202.404 19.3161 202.69 19.2559 202.986 19.2559C203.364 19.2559 203.689 19.321 203.963 19.4512C204.24 19.5814 204.466 19.7637 204.642 19.998C204.817 20.2292 204.948 20.5026 205.032 20.8184C205.117 21.1309 205.159 21.4727 205.159 21.8438V22.249H201.214V21.5117H204.256V21.4434C204.243 21.209 204.194 20.9811 204.109 20.7598C204.028 20.5384 203.898 20.3561 203.719 20.2129C203.54 20.0697 203.296 19.998 202.986 19.998C202.781 19.998 202.592 20.042 202.42 20.1299C202.247 20.2145 202.099 20.3415 201.976 20.5107C201.852 20.68 201.756 20.8867 201.688 21.1309C201.619 21.375 201.585 21.6566 201.585 21.9756V22.1807C201.585 22.4313 201.619 22.6673 201.688 22.8887C201.759 23.1068 201.862 23.2988 201.995 23.4648C202.132 23.6309 202.296 23.7611 202.488 23.8555C202.684 23.9499 202.905 23.9971 203.152 23.9971C203.471 23.9971 203.742 23.932 203.963 23.8018C204.184 23.6715 204.378 23.4974 204.544 23.2793L205.091 23.7139C204.977 23.8864 204.832 24.0508 204.656 24.207C204.48 24.3633 204.264 24.4902 204.007 24.5879C203.753 24.6855 203.452 24.7344 203.104 24.7344ZM209.798 21.6436V22.376H207.005V21.6436H209.798ZM207.195 19.3535V24.6367H206.292V19.3535H207.195ZM210.53 19.3535V24.6367H209.622V19.3535H210.53ZM215.569 21.6436V22.376H212.776V21.6436H215.569ZM212.967 19.3535V24.6367H212.063V19.3535H212.967ZM216.302 19.3535V24.6367H215.394V19.3535H216.302ZM218.499 21.1699H220.086C220.512 21.1699 220.872 21.2448 221.165 21.3945C221.458 21.541 221.679 21.7445 221.829 22.0049C221.982 22.262 222.059 22.555 222.059 22.8838C222.059 23.1279 222.016 23.3574 221.932 23.5723C221.847 23.7839 221.72 23.9694 221.551 24.1289C221.385 24.2884 221.178 24.4137 220.931 24.5049C220.687 24.5928 220.405 24.6367 220.086 24.6367H217.84V19.3535H218.743V23.8945H220.086C220.346 23.8945 220.555 23.8473 220.711 23.7529C220.867 23.6585 220.979 23.5365 221.048 23.3867C221.116 23.237 221.15 23.0807 221.15 22.918C221.15 22.7585 221.116 22.6022 221.048 22.4492C220.979 22.2962 220.867 22.1693 220.711 22.0684C220.555 21.9642 220.346 21.9121 220.086 21.9121H218.499V21.1699ZM223.938 19.3535V24.6367H223.035V19.3535H223.938ZM226.497 23.2061L228.934 19.3535H229.842V24.6367H228.934V20.7842L226.497 24.6367H225.599V19.3535H226.497V23.2061ZM228.44 17.4395H229.173C229.173 17.6934 229.114 17.9196 228.997 18.1182C228.88 18.3135 228.712 18.4665 228.494 18.5771C228.276 18.6878 228.017 18.7432 227.718 18.7432C227.265 18.7432 226.907 18.6227 226.644 18.3818C226.383 18.1377 226.253 17.8236 226.253 17.4395H226.985C226.985 17.6315 227.041 17.8008 227.151 17.9473C227.262 18.0938 227.451 18.167 227.718 18.167C227.978 18.167 228.164 18.0938 228.274 17.9473C228.385 17.8008 228.44 17.6315 228.44 17.4395ZM235.257 24.0898L236.727 19.3535H237.693L235.574 25.4521C235.525 25.5824 235.46 25.7223 235.379 25.8721C235.301 26.0251 235.2 26.1699 235.076 26.3066C234.952 26.4434 234.803 26.554 234.627 26.6387C234.454 26.7266 234.248 26.7705 234.007 26.7705C233.935 26.7705 233.844 26.7607 233.733 26.7412C233.623 26.7217 233.545 26.7054 233.499 26.6924L233.494 25.96C233.52 25.9632 233.561 25.9665 233.616 25.9697C233.675 25.9762 233.715 25.9795 233.738 25.9795C233.943 25.9795 234.118 25.9518 234.261 25.8965C234.404 25.8444 234.524 25.7549 234.622 25.6279C234.723 25.5042 234.809 25.3333 234.881 25.1152L235.257 24.0898ZM234.178 19.3535L235.55 23.4551L235.784 24.4072L235.135 24.7393L233.191 19.3535H234.178ZM242.093 21.6436V22.376H239.3V21.6436H242.093ZM239.49 19.3535V24.6367H238.587V19.3535H239.49ZM242.825 19.3535V24.6367H241.917V19.3535H242.825ZM245.257 23.2061L247.693 19.3535H248.602V24.6367H247.693V20.7842L245.257 24.6367H244.358V19.3535H245.257V23.2061ZM252.532 22.3125H250.799L250.789 21.5898H252.205C252.485 21.5898 252.718 21.5622 252.903 21.5068C253.092 21.4515 253.234 21.3685 253.328 21.2578C253.423 21.1471 253.47 21.0104 253.47 20.8477C253.47 20.7207 253.442 20.61 253.387 20.5156C253.335 20.418 253.255 20.3382 253.147 20.2764C253.04 20.2113 252.907 20.1641 252.747 20.1348C252.591 20.1022 252.407 20.0859 252.195 20.0859H251.038V24.6367H250.135V19.3535H252.195C252.531 19.3535 252.832 19.3828 253.099 19.4414C253.369 19.5 253.598 19.5895 253.787 19.71C253.979 19.8271 254.126 19.9769 254.227 20.1592C254.327 20.3415 254.378 20.5563 254.378 20.8037C254.378 20.9632 254.345 21.1146 254.28 21.2578C254.215 21.401 254.119 21.528 253.992 21.6387C253.865 21.7493 253.709 21.8405 253.523 21.9121C253.338 21.9805 253.125 22.0244 252.884 22.0439L252.532 22.3125ZM252.532 24.6367H250.472L250.921 23.9043H252.532C252.783 23.9043 252.991 23.8734 253.157 23.8115C253.323 23.7464 253.447 23.6553 253.528 23.5381C253.613 23.4176 253.655 23.2744 253.655 23.1084C253.655 22.9424 253.613 22.8008 253.528 22.6836C253.447 22.5632 253.323 22.472 253.157 22.4102C252.991 22.3451 252.783 22.3125 252.532 22.3125H251.16L251.17 21.5898H252.884L253.211 21.8633C253.501 21.8861 253.746 21.9577 253.948 22.0781C254.15 22.1986 254.303 22.3516 254.407 22.5371C254.511 22.7194 254.563 22.918 254.563 23.1328C254.563 23.3802 254.516 23.5983 254.422 23.7871C254.331 23.9759 254.197 24.1338 254.021 24.2607C253.846 24.3844 253.632 24.4788 253.382 24.5439C253.131 24.6058 252.848 24.6367 252.532 24.6367ZM257.967 24.7344C257.599 24.7344 257.265 24.6725 256.966 24.5488C256.67 24.4219 256.414 24.2445 256.199 24.0166C255.988 23.7887 255.825 23.5186 255.711 23.2061C255.597 22.8936 255.54 22.5518 255.54 22.1807V21.9756C255.54 21.5459 255.604 21.1634 255.73 20.8281C255.857 20.4896 256.03 20.2031 256.248 19.9688C256.466 19.7344 256.714 19.557 256.99 19.4365C257.267 19.3161 257.553 19.2559 257.85 19.2559C258.227 19.2559 258.553 19.321 258.826 19.4512C259.103 19.5814 259.329 19.7637 259.505 19.998C259.681 20.2292 259.811 20.5026 259.896 20.8184C259.98 21.1309 260.022 21.4727 260.022 21.8438V22.249H256.077V21.5117H259.119V21.4434C259.106 21.209 259.057 20.9811 258.973 20.7598C258.891 20.5384 258.761 20.3561 258.582 20.2129C258.403 20.0697 258.159 19.998 257.85 19.998C257.645 19.998 257.456 20.042 257.283 20.1299C257.111 20.2145 256.963 20.3415 256.839 20.5107C256.715 20.68 256.619 20.8867 256.551 21.1309C256.482 21.375 256.448 21.6566 256.448 21.9756V22.1807C256.448 22.4313 256.482 22.6673 256.551 22.8887C256.622 23.1068 256.725 23.2988 256.858 23.4648C256.995 23.6309 257.16 23.7611 257.352 23.8555C257.547 23.9499 257.768 23.9971 258.016 23.9971C258.335 23.9971 258.605 23.932 258.826 23.8018C259.048 23.6715 259.241 23.4974 259.407 23.2793L259.954 23.7139C259.84 23.8864 259.695 24.0508 259.52 24.207C259.344 24.3633 259.127 24.4902 258.87 24.5879C258.616 24.6855 258.315 24.7344 257.967 24.7344ZM261.98 20.3691V26.668H261.072V19.3535H261.902L261.98 20.3691ZM265.54 21.9512V22.0537C265.54 22.4378 265.494 22.7943 265.403 23.123C265.312 23.4486 265.179 23.7318 265.003 23.9727C264.83 24.2135 264.617 24.4007 264.363 24.5342C264.109 24.6676 263.818 24.7344 263.489 24.7344C263.154 24.7344 262.858 24.679 262.601 24.5684C262.343 24.4577 262.125 24.2965 261.946 24.085C261.767 23.8734 261.624 23.6195 261.517 23.3232C261.412 23.027 261.341 22.6934 261.302 22.3223V21.7754C261.341 21.3848 261.414 21.0348 261.521 20.7256C261.629 20.4163 261.771 20.1527 261.946 19.9346C262.125 19.7132 262.342 19.5456 262.596 19.4316C262.85 19.3145 263.143 19.2559 263.475 19.2559C263.807 19.2559 264.101 19.321 264.358 19.4512C264.616 19.5781 264.832 19.7604 265.008 19.998C265.184 20.2357 265.315 20.5205 265.403 20.8525C265.494 21.1813 265.54 21.5475 265.54 21.9512ZM264.632 22.0537V21.9512C264.632 21.6875 264.604 21.4401 264.549 21.209C264.493 20.9746 264.407 20.7695 264.29 20.5938C264.176 20.4147 264.03 20.2747 263.851 20.1738C263.672 20.0697 263.458 20.0176 263.211 20.0176C262.983 20.0176 262.785 20.0566 262.615 20.1348C262.449 20.2129 262.308 20.3187 262.19 20.4521C262.073 20.5824 261.977 20.7321 261.902 20.9014C261.831 21.0674 261.777 21.2399 261.741 21.4189V22.6836C261.806 22.9115 261.897 23.1263 262.015 23.3281C262.132 23.5267 262.288 23.6878 262.483 23.8115C262.679 23.932 262.924 23.9922 263.221 23.9922C263.465 23.9922 263.675 23.9417 263.851 23.8408C264.03 23.7367 264.176 23.5951 264.29 23.416C264.407 23.237 264.493 23.0319 264.549 22.8008C264.604 22.5664 264.632 22.3174 264.632 22.0537ZM268.807 23.9922C269.021 23.9922 269.22 23.9482 269.402 23.8604C269.585 23.7725 269.734 23.652 269.852 23.499C269.969 23.3428 270.035 23.1654 270.052 22.9668H270.911C270.895 23.2793 270.789 23.5706 270.594 23.8408C270.402 24.1077 270.149 24.3242 269.837 24.4902C269.524 24.653 269.181 24.7344 268.807 24.7344C268.41 24.7344 268.063 24.6644 267.767 24.5244C267.474 24.3844 267.229 24.1924 267.034 23.9482C266.842 23.7041 266.697 23.4242 266.6 23.1084C266.505 22.7894 266.458 22.4525 266.458 22.0977V21.8926C266.458 21.5378 266.505 21.2025 266.6 20.8867C266.697 20.5677 266.842 20.2861 267.034 20.042C267.229 19.7979 267.474 19.6058 267.767 19.4658C268.063 19.3258 268.41 19.2559 268.807 19.2559C269.22 19.2559 269.581 19.3405 269.891 19.5098C270.2 19.6758 270.442 19.9036 270.618 20.1934C270.797 20.4798 270.895 20.8053 270.911 21.1699H270.052C270.035 20.9518 269.974 20.7549 269.866 20.5791C269.762 20.4033 269.619 20.2633 269.437 20.1592C269.257 20.0518 269.048 19.998 268.807 19.998C268.53 19.998 268.297 20.0534 268.108 20.1641C267.923 20.2715 267.775 20.418 267.664 20.6035C267.557 20.7858 267.479 20.9893 267.43 21.2139C267.384 21.4352 267.361 21.6615 267.361 21.8926V22.0977C267.361 22.3288 267.384 22.5566 267.43 22.7812C267.475 23.0059 267.552 23.2093 267.659 23.3916C267.77 23.5739 267.918 23.7204 268.104 23.8311C268.292 23.9385 268.527 23.9922 268.807 23.9922ZM272.903 23.2061L275.34 19.3535H276.248V24.6367H275.34V20.7842L272.903 24.6367H272.005V19.3535H272.903V23.2061ZM279.852 19.3535V24.6367H278.943V19.3535H279.852ZM281.624 19.3535V20.0859H277.205V19.3535H281.624ZM284.314 24.7344C283.947 24.7344 283.613 24.6725 283.313 24.5488C283.017 24.4219 282.762 24.2445 282.547 24.0166C282.335 23.7887 282.173 23.5186 282.059 23.2061C281.945 22.8936 281.888 22.5518 281.888 22.1807V21.9756C281.888 21.5459 281.951 21.1634 282.078 20.8281C282.205 20.4896 282.378 20.2031 282.596 19.9688C282.814 19.7344 283.061 19.557 283.338 19.4365C283.615 19.3161 283.901 19.2559 284.197 19.2559C284.575 19.2559 284.9 19.321 285.174 19.4512C285.451 19.5814 285.677 19.7637 285.853 19.998C286.028 20.2292 286.159 20.5026 286.243 20.8184C286.328 21.1309 286.37 21.4727 286.37 21.8438V22.249H282.425V21.5117H285.467V21.4434C285.454 21.209 285.405 20.9811 285.32 20.7598C285.239 20.5384 285.109 20.3561 284.93 20.2129C284.751 20.0697 284.507 19.998 284.197 19.998C283.992 19.998 283.803 20.042 283.631 20.1299C283.458 20.2145 283.31 20.3415 283.187 20.5107C283.063 20.68 282.967 20.8867 282.898 21.1309C282.83 21.375 282.796 21.6566 282.796 21.9756V22.1807C282.796 22.4313 282.83 22.6673 282.898 22.8887C282.97 23.1068 283.073 23.2988 283.206 23.4648C283.343 23.6309 283.507 23.7611 283.699 23.8555C283.895 23.9499 284.116 23.9971 284.363 23.9971C284.682 23.9971 284.952 23.932 285.174 23.8018C285.395 23.6715 285.589 23.4974 285.755 23.2793L286.302 23.7139C286.188 23.8864 286.043 24.0508 285.867 24.207C285.691 24.3633 285.475 24.4902 285.218 24.5879C284.964 24.6855 284.663 24.7344 284.314 24.7344ZM289.52 19.3535V24.6367H288.611V19.3535H289.52ZM291.292 19.3535V20.0859H286.873V19.3535H291.292ZM151.116 35.7334V33.0137C151.116 32.8053 151.074 32.6247 150.989 32.4717C150.908 32.3154 150.784 32.195 150.618 32.1104C150.452 32.0257 150.247 31.9834 150.003 31.9834C149.775 31.9834 149.575 32.0225 149.402 32.1006C149.233 32.1787 149.1 32.2812 149.002 32.4082C148.908 32.5352 148.86 32.6719 148.86 32.8184H147.957C147.957 32.6296 148.006 32.4424 148.104 32.2568C148.201 32.0713 148.341 31.9036 148.523 31.7539C148.709 31.6009 148.93 31.4805 149.188 31.3926C149.448 31.3014 149.738 31.2559 150.057 31.2559C150.441 31.2559 150.779 31.321 151.072 31.4512C151.368 31.5814 151.6 31.7783 151.766 32.042C151.935 32.3024 152.02 32.6296 152.02 33.0234V35.4844C152.02 35.6602 152.034 35.8473 152.063 36.0459C152.096 36.2445 152.143 36.4154 152.205 36.5586V36.6367H151.263C151.217 36.5326 151.181 36.3942 151.155 36.2217C151.129 36.0459 151.116 35.8831 151.116 35.7334ZM151.272 33.4336L151.282 34.0684H150.369C150.112 34.0684 149.882 34.0895 149.681 34.1318C149.479 34.1709 149.31 34.2311 149.173 34.3125C149.036 34.3939 148.932 34.4964 148.86 34.6201C148.789 34.7406 148.753 34.8822 148.753 35.0449C148.753 35.2109 148.79 35.3623 148.865 35.499C148.94 35.6357 149.052 35.7448 149.202 35.8262C149.355 35.9043 149.542 35.9434 149.764 35.9434C150.04 35.9434 150.285 35.8848 150.496 35.7676C150.708 35.6504 150.875 35.5072 150.999 35.3379C151.126 35.1686 151.194 35.0042 151.204 34.8447L151.59 35.2793C151.567 35.416 151.505 35.5674 151.404 35.7334C151.303 35.8994 151.168 36.0589 150.999 36.2119C150.833 36.3617 150.634 36.487 150.403 36.5879C150.175 36.6855 149.918 36.7344 149.632 36.7344C149.274 36.7344 148.96 36.6644 148.689 36.5244C148.423 36.3844 148.214 36.1973 148.064 35.9629C147.918 35.7253 147.845 35.46 147.845 35.167C147.845 34.8838 147.9 34.6348 148.011 34.4199C148.121 34.2018 148.281 34.0212 148.489 33.8779C148.698 33.7314 148.948 33.6208 149.241 33.5459C149.534 33.471 149.861 33.4336 150.223 33.4336H151.272ZM155.291 31.998C155.092 31.998 154.902 32.042 154.72 32.1299C154.541 32.2178 154.393 32.3398 154.275 32.4961C154.161 32.6491 154.104 32.8265 154.104 33.0283H153.24C153.24 32.7126 153.338 32.4212 153.533 32.1543C153.729 31.8841 153.982 31.6676 154.295 31.5049C154.607 31.3389 154.939 31.2559 155.291 31.2559C155.662 31.2559 155.991 31.3258 156.277 31.4658C156.564 31.6058 156.805 31.7979 157 32.042C157.199 32.2861 157.348 32.5677 157.449 32.8867C157.55 33.2025 157.601 33.5378 157.601 33.8926V34.0977C157.601 34.4525 157.549 34.7894 157.444 35.1084C157.343 35.4242 157.194 35.7057 156.995 35.9531C156.8 36.1973 156.559 36.3893 156.272 36.5293C155.989 36.6693 155.664 36.7393 155.296 36.7393C154.902 36.7393 154.549 36.6546 154.236 36.4854C153.927 36.3161 153.683 36.0882 153.504 35.8018C153.328 35.512 153.24 35.1865 153.24 34.8252H154.104C154.104 35.0433 154.157 35.2419 154.261 35.4209C154.368 35.5967 154.511 35.7367 154.69 35.8408C154.869 35.945 155.071 35.9971 155.296 35.9971C155.54 35.9971 155.75 35.9417 155.926 35.8311C156.105 35.7204 156.251 35.5739 156.365 35.3916C156.479 35.2093 156.562 35.0059 156.614 34.7812C156.67 34.5534 156.697 34.3255 156.697 34.0977V33.8926C156.697 33.6615 156.67 33.4336 156.614 33.209C156.562 32.9844 156.479 32.7809 156.365 32.5986C156.255 32.4163 156.11 32.2715 155.931 32.1641C155.755 32.0534 155.542 31.998 155.291 31.998ZM157.137 33.5752V34.3125H154.7V33.5752H157.137ZM159.725 32.3691V38.668H158.816V31.3535H159.646L159.725 32.3691ZM163.284 33.9512V34.0537C163.284 34.4378 163.239 34.7943 163.147 35.123C163.056 35.4486 162.923 35.7318 162.747 35.9727C162.575 36.2135 162.361 36.4007 162.107 36.5342C161.854 36.6676 161.562 36.7344 161.233 36.7344C160.898 36.7344 160.602 36.679 160.345 36.5684C160.088 36.4577 159.869 36.2965 159.69 36.085C159.511 35.8734 159.368 35.6195 159.261 35.3232C159.157 35.027 159.085 34.6934 159.046 34.3223V33.7754C159.085 33.3848 159.158 33.0348 159.266 32.7256C159.373 32.4163 159.515 32.1527 159.69 31.9346C159.869 31.7132 160.086 31.5456 160.34 31.4316C160.594 31.3145 160.887 31.2559 161.219 31.2559C161.551 31.2559 161.845 31.321 162.103 31.4512C162.36 31.5781 162.576 31.7604 162.752 31.998C162.928 32.2357 163.06 32.5205 163.147 32.8525C163.239 33.1813 163.284 33.5475 163.284 33.9512ZM162.376 34.0537V33.9512C162.376 33.6875 162.348 33.4401 162.293 33.209C162.238 32.9746 162.151 32.7695 162.034 32.5938C161.92 32.4147 161.774 32.2747 161.595 32.1738C161.416 32.0697 161.202 32.0176 160.955 32.0176C160.727 32.0176 160.529 32.0566 160.359 32.1348C160.193 32.2129 160.052 32.3187 159.935 32.4521C159.817 32.5824 159.721 32.7321 159.646 32.9014C159.575 33.0674 159.521 33.2399 159.485 33.4189V34.6836C159.55 34.9115 159.642 35.1263 159.759 35.3281C159.876 35.5267 160.032 35.6878 160.228 35.8115C160.423 35.932 160.669 35.9922 160.965 35.9922C161.209 35.9922 161.419 35.9417 161.595 35.8408C161.774 35.7367 161.92 35.5951 162.034 35.416C162.151 35.237 162.238 35.0319 162.293 34.8008C162.348 34.5664 162.376 34.3174 162.376 34.0537ZM164.197 34.0537V33.9414C164.197 33.5605 164.253 33.2074 164.363 32.8818C164.474 32.5531 164.633 32.2682 164.842 32.0273C165.05 31.7832 165.302 31.5944 165.599 31.4609C165.895 31.3242 166.227 31.2559 166.595 31.2559C166.966 31.2559 167.299 31.3242 167.596 31.4609C167.895 31.5944 168.149 31.7832 168.357 32.0273C168.569 32.2682 168.73 32.5531 168.841 32.8818C168.951 33.2074 169.007 33.5605 169.007 33.9414V34.0537C169.007 34.4346 168.951 34.7878 168.841 35.1133C168.73 35.4388 168.569 35.7236 168.357 35.9678C168.149 36.2087 167.897 36.3975 167.601 36.5342C167.308 36.6676 166.976 36.7344 166.604 36.7344C166.233 36.7344 165.9 36.6676 165.604 36.5342C165.307 36.3975 165.053 36.2087 164.842 35.9678C164.633 35.7236 164.474 35.4388 164.363 35.1133C164.253 34.7878 164.197 34.4346 164.197 34.0537ZM165.101 33.9414V34.0537C165.101 34.3174 165.132 34.5664 165.193 34.8008C165.255 35.0319 165.348 35.237 165.472 35.416C165.599 35.5951 165.757 35.7367 165.945 35.8408C166.134 35.9417 166.354 35.9922 166.604 35.9922C166.852 35.9922 167.068 35.9417 167.254 35.8408C167.443 35.7367 167.599 35.5951 167.723 35.416C167.846 35.237 167.939 35.0319 168.001 34.8008C168.066 34.5664 168.099 34.3174 168.099 34.0537V33.9414C168.099 33.681 168.066 33.4352 168.001 33.2041C167.939 32.9697 167.845 32.763 167.718 32.584C167.594 32.4017 167.438 32.2585 167.249 32.1543C167.063 32.0501 166.845 31.998 166.595 31.998C166.347 31.998 166.129 32.0501 165.94 32.1543C165.755 32.2585 165.599 32.4017 165.472 32.584C165.348 32.763 165.255 32.9697 165.193 33.2041C165.132 33.4352 165.101 33.681 165.101 33.9414ZM171.121 31.3535V36.6367H170.218V31.3535H171.121ZM174.588 31.3535L172.083 34.3809H170.818L170.682 33.5898H171.717L173.489 31.3535H174.588ZM173.616 36.6367L171.673 34.2441L172.254 33.5898L174.764 36.6367H173.616ZM175.203 34.0537V33.9414C175.203 33.5605 175.258 33.2074 175.369 32.8818C175.48 32.5531 175.639 32.2682 175.848 32.0273C176.056 31.7832 176.308 31.5944 176.604 31.4609C176.901 31.3242 177.233 31.2559 177.601 31.2559C177.972 31.2559 178.305 31.3242 178.602 31.4609C178.901 31.5944 179.155 31.7832 179.363 32.0273C179.575 32.2682 179.736 32.5531 179.847 32.8818C179.957 33.2074 180.013 33.5605 180.013 33.9414V34.0537C180.013 34.4346 179.957 34.7878 179.847 35.1133C179.736 35.4388 179.575 35.7236 179.363 35.9678C179.155 36.2087 178.903 36.3975 178.606 36.5342C178.313 36.6676 177.981 36.7344 177.61 36.7344C177.239 36.7344 176.906 36.6676 176.609 36.5342C176.313 36.3975 176.059 36.2087 175.848 35.9678C175.639 35.7236 175.48 35.4388 175.369 35.1133C175.258 34.7878 175.203 34.4346 175.203 34.0537ZM176.106 33.9414V34.0537C176.106 34.3174 176.137 34.5664 176.199 34.8008C176.261 35.0319 176.354 35.237 176.478 35.416C176.604 35.5951 176.762 35.7367 176.951 35.8408C177.14 35.9417 177.36 35.9922 177.61 35.9922C177.858 35.9922 178.074 35.9417 178.26 35.8408C178.449 35.7367 178.605 35.5951 178.729 35.416C178.852 35.237 178.945 35.0319 179.007 34.8008C179.072 34.5664 179.104 34.3174 179.104 34.0537V33.9414C179.104 33.681 179.072 33.4352 179.007 33.2041C178.945 32.9697 178.851 32.763 178.724 32.584C178.6 32.4017 178.444 32.2585 178.255 32.1543C178.069 32.0501 177.851 31.998 177.601 31.998C177.353 31.998 177.135 32.0501 176.946 32.1543C176.761 32.2585 176.604 32.4017 176.478 32.584C176.354 32.763 176.261 32.9697 176.199 33.2041C176.137 33.4352 176.106 33.681 176.106 33.9414ZM183.26 35.9922C183.475 35.9922 183.673 35.9482 183.855 35.8604C184.038 35.7725 184.188 35.652 184.305 35.499C184.422 35.3428 184.489 35.1654 184.505 34.9668H185.364C185.348 35.2793 185.242 35.5706 185.047 35.8408C184.855 36.1077 184.603 36.3242 184.29 36.4902C183.978 36.653 183.634 36.7344 183.26 36.7344C182.863 36.7344 182.516 36.6644 182.22 36.5244C181.927 36.3844 181.683 36.1924 181.487 35.9482C181.295 35.7041 181.15 35.4242 181.053 35.1084C180.958 34.7894 180.911 34.4525 180.911 34.0977V33.8926C180.911 33.5378 180.958 33.2025 181.053 32.8867C181.15 32.5677 181.295 32.2861 181.487 32.042C181.683 31.7979 181.927 31.6058 182.22 31.4658C182.516 31.3258 182.863 31.2559 183.26 31.2559C183.673 31.2559 184.035 31.3405 184.344 31.5098C184.653 31.6758 184.896 31.9036 185.071 32.1934C185.25 32.4798 185.348 32.8053 185.364 33.1699H184.505C184.489 32.9518 184.427 32.7549 184.319 32.5791C184.215 32.4033 184.072 32.2633 183.89 32.1592C183.711 32.0518 183.501 31.998 183.26 31.998C182.983 31.998 182.75 32.0534 182.562 32.1641C182.376 32.2715 182.228 32.418 182.117 32.6035C182.01 32.7858 181.932 32.9893 181.883 33.2139C181.837 33.4352 181.814 33.6615 181.814 33.8926V34.0977C181.814 34.3288 181.837 34.5566 181.883 34.7812C181.928 35.0059 182.005 35.2093 182.112 35.3916C182.223 35.5739 182.371 35.7204 182.557 35.8311C182.745 35.9385 182.98 35.9922 183.26 35.9922ZM189.417 35.4355L191.214 31.3535H192.083L189.729 36.6367H189.104L186.761 31.3535H187.63L189.417 35.4355ZM187.366 31.3535V36.6367H186.463V31.3535H187.366ZM191.438 36.6367V31.3535H192.347V36.6367H191.438ZM194.778 35.2061L197.215 31.3535H198.123V36.6367H197.215V32.7842L194.778 36.6367H193.88V31.3535H194.778V35.2061ZM203.558 31.3535V36.6367H202.654V31.3535H203.558ZM203.25 33.7803V34.5225C203.068 34.5908 202.882 34.6527 202.693 34.708C202.508 34.7601 202.311 34.8024 202.103 34.835C201.897 34.8643 201.674 34.8789 201.434 34.8789C201.017 34.8789 200.656 34.8073 200.35 34.6641C200.044 34.5176 199.808 34.2979 199.642 34.0049C199.476 33.7087 199.393 33.3359 199.393 32.8867V31.3438H200.296V32.8867C200.296 33.1797 200.34 33.4173 200.428 33.5996C200.516 33.7819 200.644 33.917 200.813 34.0049C200.983 34.0895 201.189 34.1318 201.434 34.1318C201.668 34.1318 201.888 34.1172 202.093 34.0879C202.301 34.0553 202.5 34.013 202.688 33.9609C202.881 33.9089 203.068 33.8486 203.25 33.7803ZM207.205 36.7344C206.837 36.7344 206.504 36.6725 206.204 36.5488C205.908 36.4219 205.652 36.2445 205.438 36.0166C205.226 35.7887 205.063 35.5186 204.949 35.2061C204.835 34.8936 204.778 34.5518 204.778 34.1807V33.9756C204.778 33.5459 204.842 33.1634 204.969 32.8281C205.096 32.4896 205.268 32.2031 205.486 31.9688C205.704 31.7344 205.952 31.557 206.229 31.4365C206.505 31.3161 206.792 31.2559 207.088 31.2559C207.465 31.2559 207.791 31.321 208.064 31.4512C208.341 31.5814 208.567 31.7637 208.743 31.998C208.919 32.2292 209.049 32.5026 209.134 32.8184C209.218 33.1309 209.261 33.4727 209.261 33.8438V34.249H205.315V33.5117H208.357V33.4434C208.344 33.209 208.296 32.9811 208.211 32.7598C208.13 32.5384 207.999 32.3561 207.82 32.2129C207.641 32.0697 207.397 31.998 207.088 31.998C206.883 31.998 206.694 32.042 206.521 32.1299C206.349 32.2145 206.201 32.3415 206.077 32.5107C205.953 32.68 205.857 32.8867 205.789 33.1309C205.721 33.375 205.687 33.6566 205.687 33.9756V34.1807C205.687 34.4313 205.721 34.6673 205.789 34.8887C205.861 35.1068 205.963 35.2988 206.097 35.4648C206.233 35.6309 206.398 35.7611 206.59 35.8555C206.785 35.9499 207.007 35.9971 207.254 35.9971C207.573 35.9971 207.843 35.932 208.064 35.8018C208.286 35.6715 208.479 35.4974 208.646 35.2793L209.192 35.7139C209.078 35.8864 208.934 36.0508 208.758 36.207C208.582 36.3633 208.366 36.4902 208.108 36.5879C207.854 36.6855 207.553 36.7344 207.205 36.7344ZM212.43 35.9922C212.645 35.9922 212.843 35.9482 213.025 35.8604C213.208 35.7725 213.357 35.652 213.475 35.499C213.592 35.3428 213.659 35.1654 213.675 34.9668H214.534C214.518 35.2793 214.412 35.5706 214.217 35.8408C214.025 36.1077 213.772 36.3242 213.46 36.4902C213.147 36.653 212.804 36.7344 212.43 36.7344C212.033 36.7344 211.686 36.6644 211.39 36.5244C211.097 36.3844 210.853 36.1924 210.657 35.9482C210.465 35.7041 210.32 35.4242 210.223 35.1084C210.128 34.7894 210.081 34.4525 210.081 34.0977V33.8926C210.081 33.5378 210.128 33.2025 210.223 32.8867C210.32 32.5677 210.465 32.2861 210.657 32.042C210.853 31.7979 211.097 31.6058 211.39 31.4658C211.686 31.3258 212.033 31.2559 212.43 31.2559C212.843 31.2559 213.204 31.3405 213.514 31.5098C213.823 31.6758 214.065 31.9036 214.241 32.1934C214.42 32.4798 214.518 32.8053 214.534 33.1699H213.675C213.659 32.9518 213.597 32.7549 213.489 32.5791C213.385 32.4033 213.242 32.2633 213.06 32.1592C212.881 32.0518 212.671 31.998 212.43 31.998C212.153 31.998 211.92 32.0534 211.731 32.1641C211.546 32.2715 211.398 32.418 211.287 32.6035C211.18 32.7858 211.102 32.9893 211.053 33.2139C211.007 33.4352 210.984 33.6615 210.984 33.8926V34.0977C210.984 34.3288 211.007 34.5566 211.053 34.7812C211.098 35.0059 211.175 35.2093 211.282 35.3916C211.393 35.5739 211.541 35.7204 211.727 35.8311C211.915 35.9385 212.15 35.9922 212.43 35.9922ZM216.531 31.3535V36.6367H215.628V31.3535H216.531ZM219.998 31.3535L217.493 34.3809H216.229L216.092 33.5898H217.127L218.899 31.3535H219.998ZM219.026 36.6367L217.083 34.2441L217.664 33.5898L220.174 36.6367H219.026ZM220.613 34.0537V33.9414C220.613 33.5605 220.669 33.2074 220.779 32.8818C220.89 32.5531 221.049 32.2682 221.258 32.0273C221.466 31.7832 221.718 31.5944 222.015 31.4609C222.311 31.3242 222.643 31.2559 223.011 31.2559C223.382 31.2559 223.715 31.3242 224.012 31.4609C224.311 31.5944 224.565 31.7832 224.773 32.0273C224.985 32.2682 225.146 32.5531 225.257 32.8818C225.368 33.2074 225.423 33.5605 225.423 33.9414V34.0537C225.423 34.4346 225.368 34.7878 225.257 35.1133C225.146 35.4388 224.985 35.7236 224.773 35.9678C224.565 36.2087 224.313 36.3975 224.017 36.5342C223.724 36.6676 223.392 36.7344 223.021 36.7344C222.649 36.7344 222.316 36.6676 222.02 36.5342C221.723 36.3975 221.469 36.2087 221.258 35.9678C221.049 35.7236 220.89 35.4388 220.779 35.1133C220.669 34.7878 220.613 34.4346 220.613 34.0537ZM221.517 33.9414V34.0537C221.517 34.3174 221.548 34.5664 221.609 34.8008C221.671 35.0319 221.764 35.237 221.888 35.416C222.015 35.5951 222.173 35.7367 222.361 35.8408C222.55 35.9417 222.77 35.9922 223.021 35.9922C223.268 35.9922 223.484 35.9417 223.67 35.8408C223.859 35.7367 224.015 35.5951 224.139 35.416C224.262 35.237 224.355 35.0319 224.417 34.8008C224.482 34.5664 224.515 34.3174 224.515 34.0537V33.9414C224.515 33.681 224.482 33.4352 224.417 33.2041C224.355 32.9697 224.261 32.763 224.134 32.584C224.01 32.4017 223.854 32.2585 223.665 32.1543C223.479 32.0501 223.261 31.998 223.011 31.998C222.763 31.998 222.545 32.0501 222.356 32.1543C222.171 32.2585 222.015 32.4017 221.888 32.584C221.764 32.763 221.671 32.9697 221.609 33.2041C221.548 33.4352 221.517 33.681 221.517 33.9414ZM229.969 31.3535V32.1006H227.527V36.6367H226.624V31.3535H229.969ZM230.418 34.0537V33.9414C230.418 33.5605 230.473 33.2074 230.584 32.8818C230.695 32.5531 230.854 32.2682 231.062 32.0273C231.271 31.7832 231.523 31.5944 231.819 31.4609C232.116 31.3242 232.448 31.2559 232.815 31.2559C233.187 31.2559 233.52 31.3242 233.816 31.4609C234.116 31.5944 234.37 31.7832 234.578 32.0273C234.79 32.2682 234.951 32.5531 235.062 32.8818C235.172 33.2074 235.228 33.5605 235.228 33.9414V34.0537C235.228 34.4346 235.172 34.7878 235.062 35.1133C234.951 35.4388 234.79 35.7236 234.578 35.9678C234.37 36.2087 234.118 36.3975 233.821 36.5342C233.528 36.6676 233.196 36.7344 232.825 36.7344C232.454 36.7344 232.12 36.6676 231.824 36.5342C231.528 36.3975 231.274 36.2087 231.062 35.9678C230.854 35.7236 230.695 35.4388 230.584 35.1133C230.473 34.7878 230.418 34.4346 230.418 34.0537ZM231.321 33.9414V34.0537C231.321 34.3174 231.352 34.5664 231.414 34.8008C231.476 35.0319 231.569 35.237 231.692 35.416C231.819 35.5951 231.977 35.7367 232.166 35.8408C232.355 35.9417 232.575 35.9922 232.825 35.9922C233.073 35.9922 233.289 35.9417 233.475 35.8408C233.663 35.7367 233.82 35.5951 233.943 35.416C234.067 35.237 234.16 35.0319 234.222 34.8008C234.287 34.5664 234.319 34.3174 234.319 34.0537V33.9414C234.319 33.681 234.287 33.4352 234.222 33.2041C234.16 32.9697 234.065 32.763 233.938 32.584C233.815 32.4017 233.659 32.2585 233.47 32.1543C233.284 32.0501 233.066 31.998 232.815 31.998C232.568 31.998 232.35 32.0501 232.161 32.1543C231.976 32.2585 231.819 32.4017 231.692 32.584C231.569 32.763 231.476 32.9697 231.414 33.2041C231.352 33.4352 231.321 33.681 231.321 33.9414ZM242.361 31.3535V32.1006H239.69V31.3535H242.361ZM239.822 31.3535V36.6367H238.919V31.3535H239.822ZM243.162 31.3535V36.6367H242.254V31.3535H243.162ZM245.516 32.3691V38.668H244.607V31.3535H245.438L245.516 32.3691ZM249.075 33.9512V34.0537C249.075 34.4378 249.03 34.7943 248.938 35.123C248.847 35.4486 248.714 35.7318 248.538 35.9727C248.366 36.2135 248.152 36.4007 247.898 36.5342C247.645 36.6676 247.353 36.7344 247.024 36.7344C246.689 36.7344 246.393 36.679 246.136 36.5684C245.879 36.4577 245.66 36.2965 245.481 36.085C245.302 35.8734 245.159 35.6195 245.052 35.3232C244.948 35.027 244.876 34.6934 244.837 34.3223V33.7754C244.876 33.3848 244.949 33.0348 245.057 32.7256C245.164 32.4163 245.306 32.1527 245.481 31.9346C245.66 31.7132 245.877 31.5456 246.131 31.4316C246.385 31.3145 246.678 31.2559 247.01 31.2559C247.342 31.2559 247.636 31.321 247.894 31.4512C248.151 31.5781 248.367 31.7604 248.543 31.998C248.719 32.2357 248.851 32.5205 248.938 32.8525C249.03 33.1813 249.075 33.5475 249.075 33.9512ZM248.167 34.0537V33.9512C248.167 33.6875 248.139 33.4401 248.084 33.209C248.029 32.9746 247.942 32.7695 247.825 32.5938C247.711 32.4147 247.565 32.2747 247.386 32.1738C247.207 32.0697 246.993 32.0176 246.746 32.0176C246.518 32.0176 246.32 32.0566 246.15 32.1348C245.984 32.2129 245.843 32.3187 245.726 32.4521C245.608 32.5824 245.512 32.7321 245.438 32.9014C245.366 33.0674 245.312 33.2399 245.276 33.4189V34.6836C245.341 34.9115 245.433 35.1263 245.55 35.3281C245.667 35.5267 245.823 35.6878 246.019 35.8115C246.214 35.932 246.46 35.9922 246.756 35.9922C247 35.9922 247.21 35.9417 247.386 35.8408C247.565 35.7367 247.711 35.5951 247.825 35.416C247.942 35.237 248.029 35.0319 248.084 34.8008C248.139 34.5664 248.167 34.3174 248.167 34.0537ZM251.204 35.2061L253.641 31.3535H254.549V36.6367H253.641V32.7842L251.204 36.6367H250.306V31.3535H251.204V35.2061ZM259.388 29.0537H260.13C260.13 29.3727 260.081 29.6266 259.983 29.8154C259.886 30.001 259.752 30.1442 259.583 30.2451C259.417 30.346 259.228 30.4225 259.017 30.4746C258.808 30.5267 258.592 30.5771 258.367 30.626C258.087 30.6846 257.827 30.7773 257.586 30.9043C257.348 31.028 257.143 31.2038 256.971 31.4316C256.801 31.6595 256.676 31.9557 256.595 32.3203C256.517 32.6849 256.495 33.1357 256.531 33.6729V34.1221H255.789V33.6729C255.789 33.0706 255.846 32.5449 255.96 32.0957C256.077 31.6465 256.242 31.2673 256.453 30.958C256.665 30.6488 256.915 30.403 257.205 30.2207C257.498 30.0384 257.82 29.9131 258.172 29.8447C258.426 29.7959 258.644 29.7438 258.826 29.6885C259.008 29.6299 259.147 29.5518 259.241 29.4541C259.339 29.3564 259.388 29.223 259.388 29.0537ZM258.318 31.6562C258.663 31.6562 258.971 31.7165 259.241 31.8369C259.511 31.9574 259.741 32.125 259.93 32.3398C260.118 32.5547 260.262 32.8086 260.359 33.1016C260.46 33.3913 260.511 33.707 260.511 34.0488V34.1562C260.511 34.5241 260.457 34.8659 260.35 35.1816C260.245 35.4941 260.091 35.7676 259.886 36.002C259.684 36.2331 259.437 36.4137 259.144 36.5439C258.854 36.6742 258.523 36.7393 258.152 36.7393C257.781 36.7393 257.449 36.6742 257.156 36.5439C256.867 36.4137 256.619 36.2331 256.414 36.002C256.209 35.7676 256.053 35.4941 255.945 35.1816C255.841 34.8659 255.789 34.5241 255.789 34.1562V34.0488C255.789 33.9674 255.804 33.8877 255.833 33.8096C255.862 33.7314 255.898 33.6517 255.94 33.5703C255.986 33.4889 256.027 33.4027 256.062 33.3115C256.183 33.0186 256.347 32.7467 256.556 32.4961C256.767 32.2454 257.02 32.0436 257.312 31.8906C257.609 31.7344 257.944 31.6562 258.318 31.6562ZM258.143 32.3936C257.811 32.3936 257.537 32.4701 257.322 32.623C257.111 32.776 256.953 32.9795 256.849 33.2334C256.744 33.484 256.692 33.7559 256.692 34.0488V34.1562C256.692 34.4036 256.722 34.638 256.78 34.8594C256.839 35.0807 256.927 35.2777 257.044 35.4502C257.164 35.6195 257.316 35.7529 257.498 35.8506C257.684 35.9482 257.902 35.9971 258.152 35.9971C258.403 35.9971 258.619 35.9482 258.802 35.8506C258.984 35.7529 259.134 35.6195 259.251 35.4502C259.368 35.2777 259.456 35.0807 259.515 34.8594C259.573 34.638 259.603 34.4036 259.603 34.1562V34.0488C259.603 33.8275 259.573 33.6175 259.515 33.4189C259.456 33.2204 259.367 33.0446 259.246 32.8916C259.129 32.7386 258.978 32.6182 258.792 32.5303C258.61 32.4391 258.393 32.3936 258.143 32.3936ZM261.297 34.0537V33.9414C261.297 33.5605 261.352 33.2074 261.463 32.8818C261.574 32.5531 261.733 32.2682 261.941 32.0273C262.15 31.7832 262.402 31.5944 262.698 31.4609C262.994 31.3242 263.326 31.2559 263.694 31.2559C264.065 31.2559 264.399 31.3242 264.695 31.4609C264.995 31.5944 265.249 31.7832 265.457 32.0273C265.669 32.2682 265.83 32.5531 265.94 32.8818C266.051 33.2074 266.106 33.5605 266.106 33.9414V34.0537C266.106 34.4346 266.051 34.7878 265.94 35.1133C265.83 35.4388 265.669 35.7236 265.457 35.9678C265.249 36.2087 264.996 36.3975 264.7 36.5342C264.407 36.6676 264.075 36.7344 263.704 36.7344C263.333 36.7344 262.999 36.6676 262.703 36.5342C262.407 36.3975 262.153 36.2087 261.941 35.9678C261.733 35.7236 261.574 35.4388 261.463 35.1133C261.352 34.7878 261.297 34.4346 261.297 34.0537ZM262.2 33.9414V34.0537C262.2 34.3174 262.231 34.5664 262.293 34.8008C262.355 35.0319 262.448 35.237 262.571 35.416C262.698 35.5951 262.856 35.7367 263.045 35.8408C263.234 35.9417 263.453 35.9922 263.704 35.9922C263.951 35.9922 264.168 35.9417 264.354 35.8408C264.542 35.7367 264.699 35.5951 264.822 35.416C264.946 35.237 265.039 35.0319 265.101 34.8008C265.166 34.5664 265.198 34.3174 265.198 34.0537V33.9414C265.198 33.681 265.166 33.4352 265.101 33.2041C265.039 32.9697 264.944 32.763 264.817 32.584C264.694 32.4017 264.537 32.2585 264.349 32.1543C264.163 32.0501 263.945 31.998 263.694 31.998C263.447 31.998 263.229 32.0501 263.04 32.1543C262.854 32.2585 262.698 32.4017 262.571 32.584C262.448 32.763 262.355 32.9697 262.293 33.2041C262.231 33.4352 262.2 33.681 262.2 33.9414ZM268.143 32.3691V38.668H267.234V31.3535H268.064L268.143 32.3691ZM271.702 33.9512V34.0537C271.702 34.4378 271.657 34.7943 271.565 35.123C271.474 35.4486 271.341 35.7318 271.165 35.9727C270.993 36.2135 270.779 36.4007 270.525 36.5342C270.271 36.6676 269.98 36.7344 269.651 36.7344C269.316 36.7344 269.02 36.679 268.763 36.5684C268.506 36.4577 268.287 36.2965 268.108 36.085C267.929 35.8734 267.786 35.6195 267.679 35.3232C267.575 35.027 267.503 34.6934 267.464 34.3223V33.7754C267.503 33.3848 267.576 33.0348 267.684 32.7256C267.791 32.4163 267.933 32.1527 268.108 31.9346C268.287 31.7132 268.504 31.5456 268.758 31.4316C269.012 31.3145 269.305 31.2559 269.637 31.2559C269.969 31.2559 270.263 31.321 270.521 31.4512C270.778 31.5781 270.994 31.7604 271.17 31.998C271.346 32.2357 271.478 32.5205 271.565 32.8525C271.657 33.1813 271.702 33.5475 271.702 33.9512ZM270.794 34.0537V33.9512C270.794 33.6875 270.766 33.4401 270.711 33.209C270.656 32.9746 270.569 32.7695 270.452 32.5938C270.338 32.4147 270.192 32.2747 270.013 32.1738C269.834 32.0697 269.62 32.0176 269.373 32.0176C269.145 32.0176 268.947 32.0566 268.777 32.1348C268.611 32.2129 268.47 32.3187 268.353 32.4521C268.235 32.5824 268.139 32.7321 268.064 32.9014C267.993 33.0674 267.939 33.2399 267.903 33.4189V34.6836C267.968 34.9115 268.06 35.1263 268.177 35.3281C268.294 35.5267 268.45 35.6878 268.646 35.8115C268.841 35.932 269.087 35.9922 269.383 35.9922C269.627 35.9922 269.837 35.9417 270.013 35.8408C270.192 35.7367 270.338 35.5951 270.452 35.416C270.569 35.237 270.656 35.0319 270.711 34.8008C270.766 34.5664 270.794 34.3174 270.794 34.0537ZM272.615 34.0537V33.9414C272.615 33.5605 272.671 33.2074 272.781 32.8818C272.892 32.5531 273.051 32.2682 273.26 32.0273C273.468 31.7832 273.72 31.5944 274.017 31.4609C274.313 31.3242 274.645 31.2559 275.013 31.2559C275.384 31.2559 275.717 31.3242 276.014 31.4609C276.313 31.5944 276.567 31.7832 276.775 32.0273C276.987 32.2682 277.148 32.5531 277.259 32.8818C277.369 33.2074 277.425 33.5605 277.425 33.9414V34.0537C277.425 34.4346 277.369 34.7878 277.259 35.1133C277.148 35.4388 276.987 35.7236 276.775 35.9678C276.567 36.2087 276.315 36.3975 276.019 36.5342C275.726 36.6676 275.394 36.7344 275.022 36.7344C274.651 36.7344 274.318 36.6676 274.021 36.5342C273.725 36.3975 273.471 36.2087 273.26 35.9678C273.051 35.7236 272.892 35.4388 272.781 35.1133C272.671 34.7878 272.615 34.4346 272.615 34.0537ZM273.519 33.9414V34.0537C273.519 34.3174 273.549 34.5664 273.611 34.8008C273.673 35.0319 273.766 35.237 273.89 35.416C274.017 35.5951 274.174 35.7367 274.363 35.8408C274.552 35.9417 274.772 35.9922 275.022 35.9922C275.27 35.9922 275.486 35.9417 275.672 35.8408C275.861 35.7367 276.017 35.5951 276.141 35.416C276.264 35.237 276.357 35.0319 276.419 34.8008C276.484 34.5664 276.517 34.3174 276.517 34.0537V33.9414C276.517 33.681 276.484 33.4352 276.419 33.2041C276.357 32.9697 276.263 32.763 276.136 32.584C276.012 32.4017 275.856 32.2585 275.667 32.1543C275.481 32.0501 275.263 31.998 275.013 31.998C274.765 31.998 274.547 32.0501 274.358 32.1543C274.173 32.2585 274.017 32.4017 273.89 32.584C273.766 32.763 273.673 32.9697 273.611 33.2041C273.549 33.4352 273.519 33.681 273.519 33.9414ZM280.672 35.9922C280.887 35.9922 281.085 35.9482 281.268 35.8604C281.45 35.7725 281.6 35.652 281.717 35.499C281.834 35.3428 281.901 35.1654 281.917 34.9668H282.776C282.76 35.2793 282.654 35.5706 282.459 35.8408C282.267 36.1077 282.015 36.3242 281.702 36.4902C281.39 36.653 281.046 36.7344 280.672 36.7344C280.275 36.7344 279.928 36.6644 279.632 36.5244C279.339 36.3844 279.095 36.1924 278.899 35.9482C278.707 35.7041 278.562 35.4242 278.465 35.1084C278.37 34.7894 278.323 34.4525 278.323 34.0977V33.8926C278.323 33.5378 278.37 33.2025 278.465 32.8867C278.562 32.5677 278.707 32.2861 278.899 32.042C279.095 31.7979 279.339 31.6058 279.632 31.4658C279.928 31.3258 280.275 31.2559 280.672 31.2559C281.085 31.2559 281.447 31.3405 281.756 31.5098C282.065 31.6758 282.308 31.9036 282.483 32.1934C282.662 32.4798 282.76 32.8053 282.776 33.1699H281.917C281.901 32.9518 281.839 32.7549 281.731 32.5791C281.627 32.4033 281.484 32.2633 281.302 32.1592C281.123 32.0518 280.913 31.998 280.672 31.998C280.395 31.998 280.162 32.0534 279.974 32.1641C279.788 32.2715 279.64 32.418 279.529 32.6035C279.422 32.7858 279.344 32.9893 279.295 33.2139C279.249 33.4352 279.227 33.6615 279.227 33.8926V34.0977C279.227 34.3288 279.249 34.5566 279.295 34.7812C279.34 35.0059 279.417 35.2093 279.524 35.3916C279.635 35.5739 279.783 35.7204 279.969 35.8311C280.158 35.9385 280.392 35.9922 280.672 35.9922ZM285.945 31.3535V36.6367H285.037V31.3535H285.945ZM287.718 31.3535V32.0859H283.299V31.3535H287.718ZM289.51 32.3691V38.668H288.602V31.3535H289.432L289.51 32.3691ZM293.069 33.9512V34.0537C293.069 34.4378 293.024 34.7943 292.933 35.123C292.841 35.4486 292.708 35.7318 292.532 35.9727C292.36 36.2135 292.146 36.4007 291.893 36.5342C291.639 36.6676 291.347 36.7344 291.019 36.7344C290.683 36.7344 290.387 36.679 290.13 36.5684C289.873 36.4577 289.655 36.2965 289.476 36.085C289.297 35.8734 289.153 35.6195 289.046 35.3232C288.942 35.027 288.87 34.6934 288.831 34.3223V33.7754C288.87 33.3848 288.943 33.0348 289.051 32.7256C289.158 32.4163 289.3 32.1527 289.476 31.9346C289.655 31.7132 289.871 31.5456 290.125 31.4316C290.379 31.3145 290.672 31.2559 291.004 31.2559C291.336 31.2559 291.631 31.321 291.888 31.4512C292.145 31.5781 292.361 31.7604 292.537 31.998C292.713 32.2357 292.845 32.5205 292.933 32.8525C293.024 33.1813 293.069 33.5475 293.069 33.9512ZM292.161 34.0537V33.9512C292.161 33.6875 292.133 33.4401 292.078 33.209C292.023 32.9746 291.937 32.7695 291.819 32.5938C291.705 32.4147 291.559 32.2747 291.38 32.1738C291.201 32.0697 290.988 32.0176 290.74 32.0176C290.512 32.0176 290.314 32.0566 290.145 32.1348C289.979 32.2129 289.837 32.3187 289.72 32.4521C289.603 32.5824 289.507 32.7321 289.432 32.9014C289.36 33.0674 289.306 33.2399 289.271 33.4189V34.6836C289.336 34.9115 289.427 35.1263 289.544 35.3281C289.661 35.5267 289.817 35.6878 290.013 35.8115C290.208 35.932 290.454 35.9922 290.75 35.9922C290.994 35.9922 291.204 35.9417 291.38 35.8408C291.559 35.7367 291.705 35.5951 291.819 35.416C291.937 35.237 292.023 35.0319 292.078 34.8008C292.133 34.5664 292.161 34.3174 292.161 34.0537ZM293.982 34.0537V33.9414C293.982 33.5605 294.038 33.2074 294.148 32.8818C294.259 32.5531 294.419 32.2682 294.627 32.0273C294.835 31.7832 295.088 31.5944 295.384 31.4609C295.68 31.3242 296.012 31.2559 296.38 31.2559C296.751 31.2559 297.085 31.3242 297.381 31.4609C297.68 31.5944 297.934 31.7832 298.143 32.0273C298.354 32.2682 298.515 32.5531 298.626 32.8818C298.737 33.2074 298.792 33.5605 298.792 33.9414V34.0537C298.792 34.4346 298.737 34.7878 298.626 35.1133C298.515 35.4388 298.354 35.7236 298.143 35.9678C297.934 36.2087 297.682 36.3975 297.386 36.5342C297.093 36.6676 296.761 36.7344 296.39 36.7344C296.019 36.7344 295.685 36.6676 295.389 36.5342C295.092 36.3975 294.839 36.2087 294.627 35.9678C294.419 35.7236 294.259 35.4388 294.148 35.1133C294.038 34.7878 293.982 34.4346 293.982 34.0537ZM294.886 33.9414V34.0537C294.886 34.3174 294.917 34.5664 294.979 34.8008C295.04 35.0319 295.133 35.237 295.257 35.416C295.384 35.5951 295.542 35.7367 295.73 35.8408C295.919 35.9417 296.139 35.9922 296.39 35.9922C296.637 35.9922 296.854 35.9417 297.039 35.8408C297.228 35.7367 297.384 35.5951 297.508 35.416C297.632 35.237 297.724 35.0319 297.786 34.8008C297.851 34.5664 297.884 34.3174 297.884 34.0537V33.9414C297.884 33.681 297.851 33.4352 297.786 33.2041C297.724 32.9697 297.63 32.763 297.503 32.584C297.379 32.4017 297.223 32.2585 297.034 32.1543C296.849 32.0501 296.631 31.998 296.38 31.998C296.132 31.998 295.914 32.0501 295.726 32.1543C295.54 32.2585 295.384 32.4017 295.257 32.584C295.133 32.763 295.04 32.9697 294.979 33.2041C294.917 33.4352 294.886 33.681 294.886 33.9414ZM302.117 36.7344C301.749 36.7344 301.416 36.6725 301.116 36.5488C300.82 36.4219 300.564 36.2445 300.35 36.0166C300.138 35.7887 299.975 35.5186 299.861 35.2061C299.747 34.8936 299.69 34.5518 299.69 34.1807V33.9756C299.69 33.5459 299.754 33.1634 299.881 32.8281C300.008 32.4896 300.18 32.2031 300.398 31.9688C300.617 31.7344 300.864 31.557 301.141 31.4365C301.417 31.3161 301.704 31.2559 302 31.2559C302.378 31.2559 302.703 31.321 302.977 31.4512C303.253 31.5814 303.479 31.7637 303.655 31.998C303.831 32.2292 303.961 32.5026 304.046 32.8184C304.131 33.1309 304.173 33.4727 304.173 33.8438V34.249H300.228V33.5117H303.27V33.4434C303.257 33.209 303.208 32.9811 303.123 32.7598C303.042 32.5384 302.911 32.3561 302.732 32.2129C302.553 32.0697 302.309 31.998 302 31.998C301.795 31.998 301.606 32.042 301.434 32.1299C301.261 32.2145 301.113 32.3415 300.989 32.5107C300.866 32.68 300.77 32.8867 300.701 33.1309C300.633 33.375 300.599 33.6566 300.599 33.9756V34.1807C300.599 34.4313 300.633 34.6673 300.701 34.8887C300.773 35.1068 300.875 35.2988 301.009 35.4648C301.146 35.6309 301.31 35.7611 301.502 35.8555C301.697 35.9499 301.919 35.9971 302.166 35.9971C302.485 35.9971 302.755 35.932 302.977 35.8018C303.198 35.6715 303.392 35.4974 303.558 35.2793L304.104 35.7139C303.991 35.8864 303.846 36.0508 303.67 36.207C303.494 36.3633 303.278 36.4902 303.021 36.5879C302.767 36.6855 302.465 36.7344 302.117 36.7344ZM308.812 33.6436V34.376H306.019V33.6436H308.812ZM306.209 31.3535V36.6367H305.306V31.3535H306.209ZM309.544 31.3535V36.6367H308.636V31.3535H309.544ZM311.976 35.2061L314.412 31.3535H315.32V36.6367H314.412V32.7842L311.976 36.6367H311.077V31.3535H311.976V35.2061ZM317.84 34.1172H318.816L317.288 36.6367H316.312L317.84 34.1172ZM318.597 31.3535H320.804V36.6367H319.9V32.0859H318.597C318.34 32.0859 318.13 32.1299 317.967 32.2178C317.804 32.3024 317.685 32.4131 317.61 32.5498C317.535 32.6865 317.498 32.8281 317.498 32.9746C317.498 33.1178 317.532 33.2562 317.601 33.3896C317.669 33.5199 317.776 33.6273 317.923 33.7119C318.069 33.7965 318.258 33.8389 318.489 33.8389H320.145V34.5811H318.489C318.187 34.5811 317.918 34.5404 317.684 34.459C317.449 34.3776 317.251 34.2653 317.088 34.1221C316.925 33.9756 316.801 33.8047 316.717 33.6094C316.632 33.4108 316.59 33.196 316.59 32.9648C316.59 32.7337 316.634 32.5205 316.722 32.3252C316.813 32.1299 316.943 31.959 317.112 31.8125C317.285 31.666 317.495 31.5537 317.742 31.4756C317.993 31.3942 318.278 31.3535 318.597 31.3535Z" fill="white"/>
<path d="M66.4805 24.8093V36.4771H70.7541V24.685C70.7541 23.5693 71.6715 22.6651 72.8035 22.6651H78.8973V18.4531H72.9296C69.3677 18.4531 66.4805 21.2988 66.4805 24.8093Z" fill="white"/>
<path d="M94.2403 18.4532L89.9724 26.4779L85.2545 18.4532H80.3194L87.6184 30.8787L87.161 31.6864C86.9266 32.1264 86.4676 32.3992 85.9647 32.3992H82.9429V36.6112H85.9647C88.0586 36.6112 89.9656 35.477 90.9422 33.6505L99.0938 18.4532H94.2403Z" fill="white"/>
<path d="M103.44 28.9756L106.075 24.0121C106.47 23.1935 107.319 22.6648 108.238 22.6648H109.511C109.808 22.6648 110.048 22.9021 110.048 23.1945V28.9756H103.44ZM111.097 18.4533H108.238C105.679 18.4533 103.315 19.9249 102.253 22.1315L94.6307 36.485H99.4523L101.203 33.1876H110.048V36.485H114.321V21.6312C114.321 19.8759 112.878 18.4533 111.097 18.4533Z" fill="white"/>
<path d="M131.63 18.4532H121.953C120.172 18.4532 118.729 19.8762 118.729 21.631V36.4451H123.002V23.1907C123.002 22.9004 123.241 22.6651 123.535 22.6651H130.048C130.342 22.6651 130.581 22.9004 130.581 23.1907V36.4374H134.854V21.631C134.854 19.8762 133.411 18.4532 131.63 18.4532Z" fill="white"/>
<path d="M25.7454 20.2011C19.7777 20.2766 0.308594 21.025 0.308594 27.4646C0.308594 34.387 22.7906 34.7376 27.2979 34.7376C31.8046 34.7376 54.2866 34.387 54.2866 27.4646C54.2866 24.3948 50.23 22.9891 47.1794 22.199C43.852 21.337 39.3573 20.712 34.3946 20.4068C34.4757 21.7178 34.5328 23.0651 34.5678 24.4349C43.6363 25.0229 48.4325 26.5448 49.9071 27.4698C47.9102 28.7537 40.2105 30.7246 27.2979 30.7246C14.3623 30.7246 6.65837 28.7464 4.67717 27.4631C6.55787 26.2349 13.6054 24.3683 25.7967 24.2131C26.9105 24.1995 27.8019 23.2896 27.7873 22.1813C27.7731 21.0823 26.8734 20.2006 25.7715 20.2006C25.7626 20.2006 25.7543 20.2006 25.7454 20.2011Z" fill="white"/>
<path d="M19.9882 27.4646C19.9882 31.9485 20.3404 54.3188 27.2979 54.3188C30.3815 54.3188 31.7942 50.2855 32.5883 47.2511C33.4551 43.9386 34.0837 39.462 34.391 34.5204C32.8966 34.6094 31.5147 34.6631 30.3427 34.6948C29.7518 43.7204 28.2218 48.4943 27.2922 49.962C26.0019 47.974 24.0207 40.3126 24.0207 27.4646C24.0207 14.6031 26.0061 6.93909 27.2958 4.96096C28.5343 6.88024 30.4642 14.1969 30.5699 26.4542C30.5793 27.5568 31.4802 28.4438 32.5862 28.4438H32.604C33.7173 28.4339 34.6124 27.5276 34.603 26.4203C34.5464 19.8657 33.9549 13.724 32.9374 9.12764C31.6508 3.31617 29.8586 0.609375 27.2979 0.609375C20.3404 0.609375 19.9882 22.9797 19.9882 27.4646Z" fill="white"/>
</svg>
