<svg width="130" height="40" viewBox="0 0 130 40" fill="none" xmlns="http://www.w3.org/2000/svg">
<path d="M54.0679 16.9838V29.9544H58.8139V16.8456C58.8139 15.6054 59.8328 14.6002 61.0899 14.6002H67.8574V9.91797H61.23C57.2743 9.91797 54.0679 13.0813 54.0679 16.9838Z" fill="#005AAA"/>
<path d="M84.8966 9.91801L80.1569 18.8387L74.9174 9.91801H69.4367L77.5427 23.7309L77.0347 24.6288C76.7743 25.1179 76.2646 25.4212 75.7061 25.4212H72.3503V30.1035H75.7061C78.0315 30.1035 80.1494 28.8426 81.2339 26.8122L90.2866 9.91801H84.8966Z" fill="#005AAA"/>
<path d="M95.1129 21.6153L98.0398 16.0976C98.478 15.1876 99.4207 14.5999 100.442 14.5999H101.855C102.185 14.5999 102.452 14.8637 102.452 15.1888V21.6153H95.1129ZM103.617 9.91821H100.442C97.5998 9.91821 94.974 11.5541 93.7947 14.007L85.3302 29.9632H90.6847L92.6294 26.2976H102.452V29.9632H107.198V13.4508C107.198 11.4996 105.595 9.91821 103.617 9.91821Z" fill="#005AAA"/>
<path d="M126.419 9.91801H115.673C113.695 9.91801 112.092 11.5 112.092 13.4506V29.9189H116.838V15.1846C116.838 14.8617 117.103 14.6003 117.43 14.6003H124.663C124.99 14.6003 125.255 14.8617 125.255 15.1846V29.9103H130V13.4506C130 11.5 128.397 9.91801 126.419 9.91801Z" fill="#005AAA"/>
<path d="M19.1255 14.2974C13.3745 14.3691 0 15.0686 0 19.9997C0 25.2978 15.5168 25.7101 20.2727 25.7101C25.0287 25.7101 40.5455 25.2978 40.5455 19.9997C40.5455 17.4814 37.3861 16.3788 35.0096 15.7681C32.6116 15.1529 29.4592 14.7074 25.8796 14.4729C25.9609 15.6862 26.0161 16.9407 26.0423 18.2222C31.3695 18.5972 34.5452 19.4074 36.0069 20.0066C33.8757 20.8793 28.4781 21.9774 20.2727 21.9774C12.0319 21.9774 6.63031 20.8719 4.51592 19.9975C6.5164 19.1603 11.4537 18.1271 19.1731 18.029C19.6788 18.0227 20.1513 17.8226 20.5041 17.4659C20.8568 17.1093 21.0475 16.638 21.0405 16.1391C21.0277 15.1237 20.1797 14.2974 19.1255 14.2974Z" fill="url(#paint0_linear_532_2085)"/>
<path d="M14.4849 19.9997C14.4849 24.6917 14.9022 40 20.2725 40C22.8257 40 23.9428 36.8842 24.5606 34.5414C25.1761 32.2117 25.6387 29.0231 25.8741 25.5358C24.4699 25.6235 23.1669 25.6688 22.0754 25.6906C21.6947 30.948 20.8729 34.0798 20.2661 35.5224C19.3816 33.4198 18.268 28.0936 18.268 19.9997C18.268 11.8909 19.3839 6.56585 20.2696 4.46897C21.1199 6.5022 22.2068 11.5835 22.2742 19.2663C22.2829 20.2858 23.1314 21.1167 24.1822 21.1167C25.2243 21.1069 26.0659 20.2629 26.0572 19.2337C26.0154 14.4235 25.576 9.91272 24.8216 6.53147C23.8266 2.07511 22.3811 0 20.2725 0C14.9022 0 14.4849 15.3077 14.4849 19.9997Z" fill="url(#paint1_linear_532_2085)"/>
<defs>
<linearGradient id="paint0_linear_532_2085" x1="0.000145299" y1="20.0007" x2="40.5457" y2="20.0007" gradientUnits="userSpaceOnUse">
<stop stop-color="#45C3F3"/>
<stop offset="0.5" stop-color="#1671C2"/>
<stop offset="0.959876" stop-color="#2056AE"/>
<stop offset="1" stop-color="#2056AE"/>
</linearGradient>
<linearGradient id="paint1_linear_532_2085" x1="20.2712" y1="40" x2="20.2712" y2="-0.000426774" gradientUnits="userSpaceOnUse">
<stop stop-color="#2056AE"/>
<stop offset="0.25" stop-color="#2056AE"/>
<stop offset="0.280093" stop-color="#2056AE"/>
<stop offset="0.625" stop-color="#A32B9B"/>
<stop offset="1" stop-color="#ED1443"/>
</linearGradient>
</defs>
</svg>
