<svg width="78" height="24" viewBox="0 0 78 24" fill="none" xmlns="http://www.w3.org/2000/svg">
<path d="M32.4404 10.1902V17.9725H35.2881V10.1073C35.2881 9.36313 35.8994 8.76004 36.6536 8.76004H40.7141V5.95068H36.7377C34.3643 5.95068 32.4404 7.8487 32.4404 10.1902Z" fill="#005AAA"/>
<path d="M50.9377 5.95071L48.0939 11.3031L44.9502 5.95071H41.6617L46.5253 14.2384L46.2205 14.7772C46.0643 15.0706 45.7585 15.2526 45.4234 15.2526H43.4099V18.062H45.4234C46.8186 18.062 48.0893 17.3055 48.74 16.0872L54.1717 5.95071H50.9377Z" fill="#005AAA"/>
<path d="M57.0674 12.9691L58.8236 9.65845C59.0865 9.11248 59.6521 8.75984 60.2648 8.75984H61.1129C61.3107 8.75984 61.4711 8.9181 61.4711 9.11316V12.9691H57.0674ZM62.1699 5.95083H60.2648C58.5596 5.95083 56.9841 6.93235 56.2766 8.40412L51.1978 17.9778H54.4106L55.5774 15.7784H61.4711V17.9778H64.3183V8.0704C64.3183 6.89966 63.3566 5.95083 62.1699 5.95083Z" fill="#005AAA"/>
<path d="M75.8514 5.95071H69.4036C68.2169 5.95071 67.2551 6.89989 67.2551 8.07029V17.9512H70.1028V9.11064C70.1028 8.91695 70.2618 8.76007 70.4578 8.76007H74.7972C74.9935 8.76007 75.1526 8.91695 75.1526 9.11064V17.9461H77.9999V8.07029C77.9999 6.89989 77.0381 5.95071 75.8514 5.95071Z" fill="#005AAA"/>
<path d="M11.4753 8.57844C8.0247 8.62145 0 9.04117 0 11.9998C0 15.1787 9.31008 15.4261 12.1636 15.4261C15.0172 15.4261 24.3273 15.1787 24.3273 11.9998C24.3273 10.4888 22.4317 9.82728 21.0058 9.46088C19.5669 9.09174 17.6755 8.82443 15.5277 8.68373C15.5766 9.4117 15.6097 10.1644 15.6254 10.9333C18.8217 11.1583 20.7271 11.6445 21.6042 12.004C20.3254 12.5276 17.0869 13.1864 12.1636 13.1864C7.21916 13.1864 3.97819 12.5231 2.70955 11.9985C3.90984 11.4962 6.8722 10.8762 11.5039 10.8174C11.8073 10.8136 12.0908 10.6935 12.3024 10.4796C12.5141 10.2656 12.6285 9.98279 12.6243 9.68348C12.6166 9.0742 12.1078 8.57844 11.4753 8.57844Z" fill="url(#paint0_linear_532_2084)"/>
<path d="M8.69097 11.9998C8.69097 14.815 8.94135 24 12.1635 24C13.6954 24 14.3657 22.1305 14.7364 20.7248C15.1057 19.327 15.3832 17.4139 15.5245 15.3215C14.682 15.3741 13.9001 15.4013 13.2452 15.4144C13.0168 18.5688 12.5237 20.4479 12.1597 21.3134C11.6289 20.0519 10.9608 16.8562 10.9608 11.9998C10.9608 7.13453 11.6303 3.93951 12.1618 2.68138C12.6719 3.90132 13.3241 6.95013 13.3645 11.5598C13.3697 12.1715 13.8789 12.67 14.5093 12.67C15.1346 12.6641 15.6396 12.1577 15.6343 11.5402C15.6092 8.65411 15.3456 5.94763 14.893 3.91888C14.2959 1.24507 13.4287 0 12.1635 0C8.94135 0 8.69097 9.18461 8.69097 11.9998Z" fill="url(#paint1_linear_532_2084)"/>
<defs>
<linearGradient id="paint0_linear_532_2084" x1="8.71797e-05" y1="12.0004" x2="24.3274" y2="12.0004" gradientUnits="userSpaceOnUse">
<stop stop-color="#45C3F3"/>
<stop offset="0.5" stop-color="#1671C2"/>
<stop offset="0.959876" stop-color="#2056AE"/>
<stop offset="1" stop-color="#2056AE"/>
</linearGradient>
<linearGradient id="paint1_linear_532_2084" x1="12.1627" y1="24" x2="12.1627" y2="-0.000256064" gradientUnits="userSpaceOnUse">
<stop stop-color="#2056AE"/>
<stop offset="0.25" stop-color="#2056AE"/>
<stop offset="0.280093" stop-color="#2056AE"/>
<stop offset="0.625" stop-color="#A32B9B"/>
<stop offset="1" stop-color="#ED1443"/>
</linearGradient>
</defs>
</svg>
