<svg width="47" height="47" viewBox="0 0 47 47" fill="none" xmlns="http://www.w3.org/2000/svg">
<path d="M0 16C0 8.45753 0 4.68629 2.34315 2.34315C4.68629 0 8.45753 0 16 0H31C38.5425 0 42.3137 0 44.6569 2.34315C47 4.68629 47 8.45753 47 16V31C47 38.5425 47 42.3137 44.6569 44.6569C42.3137 47 38.5425 47 31 47H16C8.45753 47 4.68629 47 2.34315 44.6569C0 42.3137 0 38.5425 0 31V16Z" fill="#00427D"/>
<path d="M31.3828 17.2295C30.9727 16.333 30.3896 15.5273 29.6455 14.8389C28.1338 13.4355 26.127 12.6621 24 12.6621C21.873 12.6621 19.8662 13.4355 18.3545 14.8359C17.6104 15.5273 17.0273 16.3301 16.6172 17.2295C16.1895 18.167 15.9727 19.1602 15.9727 20.1855V20.9766C15.9727 21.1582 16.1191 21.3047 16.3008 21.3047H17.8828C18.0645 21.3047 18.2109 21.1582 18.2109 20.9766V20.1855C18.2109 17.2705 20.8066 14.9004 24 14.9004C27.1934 14.9004 29.7891 17.2705 29.7891 20.1855C29.7891 21.3809 29.3643 22.5059 28.5586 23.4434C27.7617 24.3721 26.6367 25.0371 25.3916 25.3184C24.6797 25.4795 24.0381 25.8809 23.584 26.4551C23.1315 27.0273 22.8848 27.7353 22.8838 28.4648V29.3848C22.8838 29.5664 23.0303 29.7129 23.2119 29.7129H24.7939C24.9756 29.7129 25.1221 29.5664 25.1221 29.3848V28.4648C25.1221 28.0049 25.4414 27.6006 25.8838 27.501C27.5947 27.1143 29.1475 26.1914 30.2578 24.9023C30.8174 24.249 31.2539 23.5225 31.5557 22.7344C31.8691 21.917 32.0273 21.0586 32.0273 20.1855C32.0273 19.1602 31.8105 18.1641 31.3828 17.2295ZM24 32.0566C23.0947 32.0566 22.3594 32.792 22.3594 33.6973C22.3594 34.6025 23.0947 35.3379 24 35.3379C24.9053 35.3379 25.6406 34.6025 25.6406 33.6973C25.6406 32.792 24.9053 32.0566 24 32.0566Z" fill="white"/>
</svg>
