<svg width="47" height="47" viewBox="0 0 47 47" fill="none" xmlns="http://www.w3.org/2000/svg">
<path d="M0 16C0 8.45753 0 4.68629 2.34315 2.34315C4.68629 0 8.45753 0 16 0H31C38.5425 0 42.3137 0 44.6569 2.34315C47 4.68629 47 8.45753 47 16V31C47 38.5425 47 42.3137 44.6569 44.6569C42.3137 47 38.5425 47 31 47H16C8.45753 47 4.68629 47 2.34315 44.6569C0 42.3137 0 38.5425 0 31V16Z" fill="#005AAA"/>
<path d="M26.3263 16.7602C24.3562 17.579 20.4179 19.2755 14.5129 21.8482C13.554 22.2297 13.051 22.6028 13.0054 22.9674C12.9277 23.5853 13.7009 23.8284 14.7509 24.1575C14.8944 24.2031 15.0429 24.2487 15.1949 24.2993C16.2297 24.6353 17.6207 25.0286 18.3432 25.0438C18.9999 25.0573 19.7325 24.7872 20.5411 24.2335C26.0578 20.5078 28.9057 18.6256 29.0846 18.5851C29.2112 18.5564 29.3868 18.5193 29.505 18.6256C29.6231 18.7303 29.6113 18.9295 29.5995 18.9835C29.5219 19.3093 26.4934 22.1267 24.9234 23.5853C24.4339 24.0394 24.0878 24.3618 24.0169 24.4361C23.8582 24.5998 23.6962 24.7568 23.5409 24.9071C22.5786 25.8322 21.8595 26.5277 23.5814 27.6621C24.3844 28.1914 25.0315 28.6316 25.6724 29.0677L25.7303 29.1071C26.4512 29.5983 27.1703 30.0879 28.1021 30.699C28.3385 30.8543 28.5647 31.0146 28.7858 31.1716C29.6248 31.7709 30.3794 32.3077 31.3112 32.2233C31.8514 32.1727 32.4119 31.6646 32.6955 30.147C33.3657 26.558 34.6858 18.786 34.9913 15.5819C35.0099 15.3159 34.9986 15.0487 34.9576 14.7852C34.933 14.5723 34.8294 14.3765 34.6672 14.2365C34.4258 14.039 34.0511 13.9968 33.8822 14.0002C33.1209 14.0137 31.9527 14.4205 26.3263 16.7602Z" fill="white"/>
</svg>
