<svg width="42" height="42" viewBox="0 0 42 42" fill="none" xmlns="http://www.w3.org/2000/svg">
<path d="M0 12C0 6.34315 0 3.51472 1.75736 1.75736C3.51472 0 6.34315 0 12 0H30C35.6569 0 38.4853 0 40.2426 1.75736C42 3.51472 42 6.34315 42 12V30C42 35.6569 42 38.4853 40.2426 40.2426C38.4853 42 35.6569 42 30 42H12C6.34315 42 3.51472 42 1.75736 40.2426C0 38.4853 0 35.6569 0 30V12Z" fill="white" fill-opacity="0.05"/>
<path fill-rule="evenodd" clip-rule="evenodd" d="M26.7372 15.1653C28.013 15.5266 28.8881 16.3087 29.2497 17.4108C29.6188 18.5358 29.649 21.2724 29.3069 22.5878C28.9736 23.8691 28.1496 24.6437 26.782 24.9614C26.5202 25.0222 26.3139 25.0939 26.3237 25.1208C26.3428 25.1736 27.9944 27.3539 29.1932 28.9087C29.6004 29.4368 29.9344 29.8904 29.9355 29.9168C29.9365 29.9432 28.9743 29.9647 27.7971 29.9647H25.6567L25.2732 29.4238C25.0623 29.1263 24.3014 28.0342 23.5825 26.9967L22.2752 25.1106H18.5512H14.8271V27.5377V29.9647H12.9135H11V22.4902V15.0156L18.6707 15.0344C25.756 15.0518 26.3715 15.0618 26.7372 15.1653ZM14.8271 20.0771C14.8271 19.1336 14.8481 18.3414 14.8738 18.3165C14.8995 18.2917 17.1635 18.2797 19.9051 18.2899C25.5582 18.311 25.2753 18.2852 25.5172 18.801C25.6265 19.0342 25.6458 19.2223 25.6469 20.0649C25.6484 21.1571 25.5919 21.369 25.2313 21.6252C25.0472 21.7559 24.9852 21.7576 19.936 21.7749L14.8271 21.7924V20.0771Z" fill="white"/>
<circle cx="32.5987" cy="12.4371" r="2.40146" fill="white"/>
</svg>
