<svg width="47" height="47" viewBox="0 0 47 47" fill="none" xmlns="http://www.w3.org/2000/svg">
<path d="M0 16C0 8.45753 0 4.68629 2.34315 2.34315C4.68629 0 8.45753 0 16 0H31C38.5425 0 42.3137 0 44.6569 2.34315C47 4.68629 47 8.45753 47 16V31C47 38.5425 47 42.3137 44.6569 44.6569C42.3137 47 38.5425 47 31 47H16C8.45753 47 4.68629 47 2.34315 44.6569C0 42.3137 0 38.5425 0 31V16Z" fill="#00427D"/>
<path fill-rule="evenodd" clip-rule="evenodd" d="M29.4037 17.1294C30.6795 17.4907 31.5546 18.2728 31.9162 19.3749C32.2853 20.4999 32.3155 23.2365 31.9734 24.5519C31.6401 25.8332 30.8161 26.6078 29.4485 26.9255C29.1867 26.9863 28.9804 27.058 28.9902 27.0849C29.0093 27.1378 30.6609 29.318 31.8597 30.8728C32.2669 31.4009 32.6009 31.8545 32.602 31.8809C32.603 31.9073 31.6408 31.9288 30.4636 31.9288H28.3232L27.9397 31.3879C27.7288 31.0905 26.9679 29.9983 26.249 28.9608L24.9418 27.0747H21.2177H17.4936V29.5018V31.9288H15.58H13.6665V24.4543V16.9797L21.3372 16.9985C28.4225 17.0159 29.0381 17.0259 29.4037 17.1294ZM17.4936 22.0412C17.4936 21.0977 17.5146 20.3055 17.5403 20.2806C17.566 20.2558 19.83 20.2438 22.5716 20.254C28.2247 20.2751 27.9418 20.2494 28.1837 20.7652C28.293 20.9983 28.3123 21.1864 28.3134 22.029C28.3149 23.1212 28.2584 23.3331 27.8978 23.5893C27.7137 23.72 27.6517 23.7217 22.6025 23.7391L17.4936 23.7566V22.0412Z" fill="white"/>
<circle cx="35.2652" cy="14.4015" r="2.40146" fill="white"/>
</svg>
