<svg width="47" height="47" viewBox="0 0 47 47" fill="none" xmlns="http://www.w3.org/2000/svg">
<path d="M0 16C0 8.45753 0 4.68629 2.34315 2.34315C4.68629 0 8.45753 0 16 0H31C38.5425 0 42.3137 0 44.6569 2.34315C47 4.68629 47 8.45753 47 16V31C47 38.5425 47 42.3137 44.6569 44.6569C42.3137 47 38.5425 47 31 47H16C8.45753 47 4.68629 47 2.34315 44.6569C0 42.3137 0 38.5425 0 31V16Z" fill="#005AAA"/>
<path d="M23.337 24.3752C20.2294 24.3752 17.6466 21.7946 17.6466 18.741C17.6466 15.5817 20.2294 13 23.3381 13C26.5523 13 29.0284 15.5806 29.0284 18.741C29.0229 20.2403 28.4223 21.6762 27.3585 22.7329C26.2948 23.7896 24.855 24.3807 23.3557 24.3763L23.337 24.3752ZM23.337 16.3187C22.0213 16.3187 21.0203 17.4243 21.0203 18.7421C21.0203 20.0577 22.0213 21.0587 23.3381 21.0587C24.7076 21.0587 25.6558 20.0577 25.6558 18.7421C25.6569 17.4232 24.7076 16.3187 23.337 16.3187ZM25.603 29.0635L28.8183 32.171C29.4508 32.8541 29.4508 33.8552 28.8183 34.4877C28.1341 35.1708 27.0792 35.1708 26.5523 34.4877L23.3381 31.3273L20.2294 34.4877C19.9137 34.8034 19.4913 34.9607 19.0161 34.9607C18.6476 34.9607 18.2263 34.8023 17.8567 34.4877C17.2242 33.8552 17.2242 32.8541 17.8567 32.1699L21.1237 29.0624C19.9439 28.713 18.8121 28.2183 17.7544 27.5895C16.9635 27.1682 16.8062 26.1155 17.2275 25.3246C17.7544 24.5347 18.7026 24.3246 19.5463 24.8515C20.6888 25.5488 22.0013 25.9176 23.3397 25.9176C24.6781 25.9176 25.9906 25.5488 27.1331 24.8515C27.9768 24.3246 28.9767 24.5347 29.4508 25.3246C29.926 26.1155 29.7137 27.1671 28.9756 27.5895C27.9757 28.222 26.8163 28.6961 25.6041 29.0646L25.603 29.0635Z" fill="white"/>
</svg>
