<svg width="42" height="42" viewBox="0 0 42 42" fill="none" xmlns="http://www.w3.org/2000/svg">
<path d="M0 12C0 6.34315 0 3.51472 1.75736 1.75736C3.51472 0 6.34315 0 12 0H30C35.6569 0 38.4853 0 40.2426 1.75736C42 3.51472 42 6.34315 42 12V30C42 35.6569 42 38.4853 40.2426 40.2426C38.4853 42 35.6569 42 30 42H12C6.34315 42 3.51472 42 1.75736 40.2426C0 38.4853 0 35.6569 0 30V12Z" fill="#003666"/>
<path d="M23.3263 14.6443C21.3562 15.463 17.4179 17.1596 11.5129 19.7322C10.554 20.1138 10.051 20.4868 10.0054 20.8515C9.92772 21.4693 10.7009 21.7124 11.7509 22.0416C11.8944 22.0872 12.0429 22.1327 12.1949 22.1834C13.2297 22.5193 14.6207 22.9126 15.3432 22.9278C15.9999 22.9413 16.7325 22.6712 17.5411 22.1175C23.0578 18.3919 25.9057 16.5096 26.0846 16.4691C26.2112 16.4404 26.3868 16.4033 26.505 16.5096C26.6231 16.6143 26.6113 16.8135 26.5995 16.8675C26.5218 17.1933 23.4934 20.0108 21.9234 21.4693C21.4339 21.9234 21.0878 22.2458 21.0169 22.3201C20.8582 22.4839 20.6962 22.6409 20.5409 22.7911C19.5786 23.7162 18.8595 24.4117 20.5814 25.5461C21.3844 26.0754 22.0315 26.5156 22.6724 26.9517L22.7303 26.9911C23.4512 27.4824 24.1703 27.9719 25.1021 28.583C25.3385 28.7383 25.5647 28.8987 25.7858 29.0557C26.6248 29.655 27.3794 30.1918 28.3112 30.1074C28.8514 30.0567 29.4119 29.5486 29.6955 28.031C30.3657 24.4421 31.6858 16.67 31.9913 13.466C32.0099 13.2 31.9986 12.9327 31.9576 12.6692C31.933 12.4564 31.8294 12.2605 31.6672 12.1206C31.4258 11.923 31.0511 11.8808 30.8822 11.8842C30.1209 11.8977 28.9527 12.3046 23.3263 14.6443Z" fill="white"/>
</svg>
