<svg width="42" height="42" viewBox="0 0 42 42" fill="none" xmlns="http://www.w3.org/2000/svg">
<path d="M0 12C0 6.34315 0 3.51472 1.75736 1.75736C3.51472 0 6.34315 0 12 0H30C35.6569 0 38.4853 0 40.2426 1.75736C42 3.51472 42 6.34315 42 12V30C42 35.6569 42 38.4853 40.2426 40.2426C38.4853 42 35.6569 42 30 42H12C6.34315 42 3.51472 42 1.75736 40.2426C0 38.4853 0 35.6569 0 30V12Z" fill="white" fill-opacity="0.05"/>
<path d="M9 21C9 14.7881 14.3726 9.75244 21 9.75244C27.6274 9.75244 33 14.7881 33 21C33 27.2118 27.6274 32.2475 21 32.2475C14.3726 32.2475 9 27.2118 9 21Z" fill="white" fill-opacity="0.09"/>
<path fill-rule="evenodd" clip-rule="evenodd" d="M20.6403 9.75244C20.5798 14.3121 20.2478 16.8747 18.4233 18.5849C16.5989 20.295 13.8647 20.6063 9 20.663V21.337C13.8647 21.3938 16.5989 21.705 18.4233 23.4151C20.2478 25.1252 20.5798 27.6879 20.6403 32.2475H21.3597C21.4198 27.6879 21.7522 25.1252 23.5767 23.4151C25.4011 21.7049 28.1353 21.3938 33 21.337V20.663C28.1353 20.6062 25.4011 20.295 23.5767 18.5849C21.7518 16.8747 21.4198 14.3121 21.3597 9.75244H20.6403Z" fill="white"/>
</svg>
