<svg width="42" height="42" viewBox="0 0 42 42" fill="none" xmlns="http://www.w3.org/2000/svg">
<path d="M0 12C0 6.34315 0 3.51472 1.75736 1.75736C3.51472 0 6.34315 0 12 0H30C35.6569 0 38.4853 0 40.2426 1.75736C42 3.51472 42 6.34315 42 12V30C42 35.6569 42 38.4853 40.2426 40.2426C38.4853 42 35.6569 42 30 42H12C6.34315 42 3.51472 42 1.75736 40.2426C0 38.4853 0 35.6569 0 30V12Z" fill="white" fill-opacity="0.05"/>
<path d="M20.9849 21.3752C17.8774 21.3752 15.2945 18.7946 15.2945 15.741C15.2945 12.5817 17.8774 10 20.986 10C24.2003 10 26.6764 12.5806 26.6764 15.741C26.6709 17.2403 26.0702 18.6762 25.0065 19.7329C23.9428 20.7896 22.503 21.3807 21.0036 21.3763L20.9849 21.3752ZM20.9849 13.3187C19.6693 13.3187 18.6683 14.4243 18.6683 15.7421C18.6683 17.0577 19.6693 18.0587 20.986 18.0587C22.3555 18.0587 23.3037 17.0577 23.3037 15.7421C23.3048 14.4232 22.3555 13.3187 20.9849 13.3187ZM23.2509 26.0635L26.4663 29.171C27.0988 29.8541 27.0988 30.8552 26.4663 31.4877C25.7821 32.1708 24.7272 32.1708 24.2003 31.4877L20.986 28.3273L17.8774 31.4877C17.5617 31.8034 17.1393 31.9607 16.6641 31.9607C16.2956 31.9607 15.8743 31.8023 15.5046 31.4877C14.8721 30.8552 14.8721 29.8541 15.5046 29.1699L18.7717 26.0624C17.5918 25.713 16.46 25.2183 15.4023 24.5895C14.6114 24.1682 14.4541 23.1155 14.8754 22.3246C15.4023 21.5347 16.3506 21.3246 17.1943 21.8515C18.3367 22.5488 19.6493 22.9176 20.9877 22.9176C22.3261 22.9176 23.6386 22.5488 24.7811 21.8515C25.6248 21.3246 26.6247 21.5347 27.0988 22.3246C27.574 23.1155 27.3617 24.1671 26.6236 24.5895C25.6237 25.222 24.4643 25.6961 23.252 26.0646L23.2509 26.0635Z" fill="white"/>
</svg>
