<svg width="42" height="42" viewBox="0 0 42 42" fill="none" xmlns="http://www.w3.org/2000/svg">
<path d="M0 12C0 6.34315 0 3.51472 1.75736 1.75736C3.51472 0 6.34315 0 12 0H30C35.6569 0 38.4853 0 40.2426 1.75736C42 3.51472 42 6.34315 42 12V30C42 35.6569 42 38.4853 40.2426 40.2426C38.4853 42 35.6569 42 30 42H12C6.34315 42 3.51472 42 1.75736 40.2426C0 38.4853 0 35.6569 0 30V12Z" fill="#003666"/>
<path fill-rule="evenodd" clip-rule="evenodd" d="M26.7372 15.1651C28.013 15.5263 28.8881 16.3085 29.2497 17.4106C29.6188 18.5356 29.649 21.2722 29.3069 22.5875C28.9736 23.8689 28.1496 24.6434 26.782 24.9612C26.5202 25.022 26.3139 25.0937 26.3237 25.1206C26.3428 25.1734 27.9944 27.3537 29.1932 28.9084C29.6004 29.4366 29.9344 29.8902 29.9355 29.9166C29.9365 29.9429 28.9743 29.9645 27.7971 29.9645H25.6567L25.2732 29.4235C25.0623 29.1261 24.3014 28.0339 23.5825 26.9965L22.2752 25.1104H18.5512H14.8271V27.5374V29.9645H12.9135H11V22.4899V15.0154L18.6707 15.0342C25.756 15.0515 26.3715 15.0616 26.7372 15.1651ZM14.8271 20.0769C14.8271 19.1334 14.8481 18.3411 14.8738 18.3163C14.8995 18.2914 17.1635 18.2794 19.9051 18.2897C25.5582 18.3107 25.2753 18.285 25.5172 18.8008C25.6265 19.0339 25.6458 19.2221 25.6469 20.0647C25.6484 21.1568 25.5919 21.3687 25.2313 21.6249C25.0472 21.7557 24.9852 21.7574 19.936 21.7747L14.8271 21.7922V20.0769Z" fill="white"/>
<circle cx="32.5987" cy="12.4371" r="2.40146" fill="white"/>
</svg>
