<svg width="42" height="42" viewBox="0 0 42 42" fill="none" xmlns="http://www.w3.org/2000/svg">
<path d="M0 12C0 6.34315 0 3.51472 1.75736 1.75736C3.51472 0 6.34315 0 12 0H30C35.6569 0 38.4853 0 40.2426 1.75736C42 3.51472 42 6.34315 42 12V30C42 35.6569 42 38.4853 40.2426 40.2426C38.4853 42 35.6569 42 30 42H12C6.34315 42 3.51472 42 1.75736 40.2426C0 38.4853 0 35.6569 0 30V12Z" fill="white" fill-opacity="0.05"/>
<path d="M23.3263 14.644C21.3562 15.4628 17.4179 17.1593 11.5129 19.732C10.554 20.1135 10.051 20.4866 10.0054 20.8512C9.92772 21.4691 10.7009 21.7122 11.7509 22.0413C11.8944 22.0869 12.0429 22.1325 12.1949 22.1831C13.2297 22.5191 14.6207 22.9124 15.3432 22.9276C15.9999 22.9411 16.7325 22.671 17.5411 22.1173C23.0578 18.3916 25.9057 16.5094 26.0846 16.4689C26.2112 16.4402 26.3868 16.403 26.505 16.5094C26.6231 16.6141 26.6113 16.8133 26.5995 16.8673C26.5218 17.1931 23.4934 20.0105 21.9234 21.4691C21.4339 21.9232 21.0878 22.2456 21.0169 22.3199C20.8582 22.4836 20.6962 22.6406 20.5409 22.7909C19.5786 23.7159 18.8595 24.4114 20.5814 25.5459C21.3844 26.0752 22.0315 26.5154 22.6724 26.9515L22.7303 26.9909C23.4512 27.4821 24.1703 27.9717 25.1021 28.5828C25.3385 28.7381 25.5647 28.8984 25.7858 29.0554C26.6248 29.6547 27.3794 30.1915 28.3112 30.1071C28.8514 30.0565 29.4119 29.5484 29.6955 28.0308C30.3657 24.4418 31.6858 16.6698 31.9913 13.4657C32.0099 13.1997 31.9986 12.9324 31.9576 12.6689C31.933 12.4561 31.8294 12.2603 31.6672 12.1203C31.4258 11.9228 31.0511 11.8806 30.8822 11.884C30.1209 11.8975 28.9527 12.3043 23.3263 14.644Z" fill="white"/>
</svg>
