<svg width="18" height="18" viewBox="0 0 18 18" fill="none" xmlns="http://www.w3.org/2000/svg">
<path fill-rule="evenodd" clip-rule="evenodd" d="M9 3C7.81913 3 6.67845 3.49311 5.83127 4.38431C4.98286 5.27679 4.5 6.49501 4.5 7.77273C4.5 9.63301 5.65224 11.4489 6.93231 12.8703C7.55917 13.5663 8.18829 14.1364 8.66129 14.5327C8.78655 14.6376 8.90046 14.73 9 14.8089C9.09954 14.73 9.21345 14.6376 9.33871 14.5327C9.8117 14.1364 10.4408 13.5663 11.0677 12.8703C12.3478 11.4489 13.5 9.63301 13.5 7.77273C13.5 6.49501 13.0171 5.27679 12.1687 4.38431C11.3215 3.49311 10.1809 3 9 3ZM9 15.75C8.56937 16.364 8.56918 16.3639 8.56898 16.3638L8.56709 16.3624L8.5629 16.3595L8.54893 16.3495C8.53716 16.3411 8.52054 16.3292 8.4994 16.3138C8.45711 16.283 8.39668 16.2383 8.3207 16.1806C8.1688 16.0652 7.95432 15.8972 7.69808 15.6825C7.18671 15.2542 6.50333 14.6354 5.81769 13.8741C4.47276 12.3807 3 10.2079 3 7.77273C3 6.12101 3.62339 4.52977 4.74411 3.35083C5.86606 2.1706 7.39609 1.5 9 1.5C10.6039 1.5 12.1339 2.1706 13.2559 3.35083C14.3766 4.52977 15 6.12101 15 7.77273C15 10.2079 13.5272 12.3807 12.1823 13.8741C11.4967 14.6354 10.8133 15.2542 10.3019 15.6825C10.0457 15.8972 9.8312 16.0652 9.6793 16.1806C9.60332 16.2383 9.54289 16.283 9.5006 16.3138C9.47946 16.3292 9.46284 16.3411 9.45107 16.3495L9.4371 16.3595L9.43291 16.3624L9.43153 16.3634C9.43133 16.3636 9.43063 16.364 9 15.75ZM9 15.75L9.43063 16.364C9.17216 16.5453 8.82745 16.545 8.56898 16.3638L9 15.75Z" fill="#005AAA"/>
<path fill-rule="evenodd" clip-rule="evenodd" d="M9 6C8.17157 6 7.5 6.67157 7.5 7.5C7.5 8.32843 8.17157 9 9 9C9.82843 9 10.5 8.32843 10.5 7.5C10.5 6.67157 9.82843 6 9 6ZM6 7.5C6 5.84315 7.34315 4.5 9 4.5C10.6569 4.5 12 5.84315 12 7.5C12 9.15685 10.6569 10.5 9 10.5C7.34315 10.5 6 9.15685 6 7.5Z" fill="#005AAA"/>
</svg>
